<svg
  width="19"
  height="19"
  viewBox="0 0 36 36"
  fill="none"
  xmlns="http://www.w3.org/2000/svg"
>
  <path
    d="M6.65 6.127a9.213 9.213 0 0 0-4.607 7.979v7.788a9.213 9.213 0 0 0 4.607 7.979l6.743 3.893a9.213 9.213 0 0 0 9.212 0l6.745-3.893a9.213 9.213 0 0 0 4.607-7.98v-7.787a9.212 9.212 0 0 0-4.607-7.978l-6.745-3.894a9.212 9.212 0 0 0-9.212 0L6.65 6.127z"
    fill="#296ECD"
  ></path>
  <circle cx="16.526" cy="15.49" r="1.255" fill="#fff"></circle>
  <circle cx="19.448" cy="15.49" r="1.255" fill="#fff"></circle>
  <circle cx="18.004" cy="12.98" r=".705" fill="#fff"></circle>
  <circle cx="18.004" cy="23.02" r=".705" fill="#fff"></circle>
  <circle cx="13.655" cy="15.49" r=".705" fill="#fff"></circle>
  <circle cx="14.781" cy="12.387" r=".593" fill="#fff"></circle>
  <circle cx="11.081" cy="14.033" r=".486" fill="#fff"></circle>
  <circle cx="18.004" cy="10.011" r=".486" fill="#fff"></circle>
  <circle cx="18.004" cy="25.989" r=".486" fill="#fff"></circle>
  <circle cx="24.941" cy="14.033" r=".486" fill="#fff"></circle>
  <circle cx="24.941" cy="22.018" r=".486" fill="#fff"></circle>
  <circle cx="11.081" cy="22.018" r=".486" fill="#fff"></circle>
  <circle cx="9.189" cy="18.013" r=".391" fill="#fff"></circle>
  <circle cx="26.81" cy="18.013" r=".391" fill="#fff"></circle>
  <circle cx="22.388" cy="10.402" r=".391" fill="#fff"></circle>
  <circle cx="22.388" cy="25.598" r=".391" fill="#fff"></circle>
  <circle cx="13.655" cy="25.598" r=".391" fill="#fff"></circle>
  <circle cx="13.655" cy="10.402" r=".391" fill="#fff"></circle>
  <circle cx="21.227" cy="12.387" r=".593" fill="#fff"></circle>
  <circle cx="24.528" cy="18" r=".593" fill="#fff"></circle>
  <circle cx="11.48" cy="18" r=".593" fill="#fff"></circle>
  <circle cx="21.227" cy="23.613" r=".593" fill="#fff"></circle>
  <circle cx="14.781" cy="23.613" r=".593" fill="#fff"></circle>
  <circle cx="13.655" cy="20.51" r=".705" fill="#fff"></circle>
  <circle cx="22.318" cy="20.51" r=".705" fill="#fff"></circle>
  <circle cx="22.318" cy="15.49" r=".705" fill="#fff"></circle>
  <circle cx="20.927" cy="18" r="1.255" fill="#fff"></circle>
  <circle cx="19.448" cy="20.51" r="1.255" fill="#fff"></circle>
  <circle cx="16.526" cy="20.51" r="1.255" fill="#fff"></circle>
  <circle cx="15.082" cy="18" r="1.255" fill="#fff"></circle>
</svg>
