<svg
  width="19"
  height="19"
  viewBox="0 0 128 128"
  fill="none"
  xmlns="http://www.w3.org/2000/svg"
>
  <path
    d="M23.643 21.786A32.755 32.755 0 0 0 7.266 50.153v27.694a32.757 32.757 0 0 0 16.377 28.367l23.976 13.842a32.755 32.755 0 0 0 32.753.001l23.983-13.844a32.755 32.755 0 0 0 16.38-28.368v-27.69a32.755 32.755 0 0 0-16.38-28.368L80.372 7.943a32.755 32.755 0 0 0-32.753.001L23.643 21.786z"
    fill="#0AC18E"
  ></path>
  <path
    fill-rule="evenodd"
    clip-rule="evenodd"
    d="M41.57 50.215l7.847-2.103-1.406-5.25 4.357-1.167 1.406 5.25 3.22-.863-1.406-5.25 4.303-1.153 1.406 5.25 1.867-.5c5.934-1.59 12.032 1.931 13.622 7.864.726 2.708.387 5.45-.76 7.782a10.601 10.601 0 0 1 7.682 7.548c1.516 5.657-1.841 11.471-7.498 12.987l-5.04 1.35 1.385 5.17-4.31 1.154-1.385-5.169-3.17.85 1.386 5.168-4.327 1.16-1.385-5.17-7.82 2.096-1.4-5.222 5.277-1.414-2.762-10.31-4.36-16.271-5.332 1.428-1.397-5.215zm13.615 1.927l7.261-1.946s5.711-1.53 7.086 3.6c1.375 5.131-4.336 6.662-4.336 6.662l-7.261 1.945-2.75-10.26zm12.854 13.074l-8.725 2.338 2.996 11.18 8.725-2.337s6.862-1.839 5.364-7.43c-1.498-5.59-8.36-3.751-8.36-3.751z"
    fill="#fff"
  ></path>
</svg>
