<svg
  width="19"
  height="19"
  viewBox="0 0 36 36"
  fill="none"
  xmlns="http://www.w3.org/2000/svg"
>
  <path
    d="M6.65 6.127a9.213 9.213 0 0 0-4.607 7.979v7.788a9.213 9.213 0 0 0 4.607 7.979l6.743 3.893a9.213 9.213 0 0 0 9.212 0l6.745-3.893a9.213 9.213 0 0 0 4.607-7.98v-7.787a9.212 9.212 0 0 0-4.607-7.978l-6.745-3.894a9.212 9.212 0 0 0-9.212 0L6.65 6.127z"
    fill="#F7931A"
  ></path>
  <path
    fill-rule="evenodd"
    clip-rule="evenodd"
    d="M14.475 11.488l2.207.592.396-1.477 1.225.328-.395 1.477.905.243.396-1.477 1.21.324-.395 1.477.525.14a3.128 3.128 0 0 1 .932 5.62 2.982 2.982 0 0 1-2.843 5.027l-1.418-.379-.389 1.454-1.212-.325.39-1.454-.892-.239-.39 1.454-1.216-.326.39-1.454-2.2-.59.393-1.468 1.485.398.776-2.9 1.227-4.576-1.5-.402.393-1.467zm3.046 2.384l2.042.547s1.606.43 1.22 1.874c-.387 1.443-1.993 1.012-1.993 1.012l-2.043-.547.774-2.886zm1.292 4.992l-2.454-.657-.842 3.144 2.454.658s1.93.517 2.35-1.055c.422-1.573-1.508-2.09-1.508-2.09z"
    fill="#fff"
  ></path>
</svg>
