<svg
  width="19"
  height="19"
  viewBox="0 0 36 36"
  fill="none"
  xmlns="http://www.w3.org/2000/svg"
>
  <path
    d="M5.982 5.429a9.754 9.754 0 0 0-4.877 8.448v8.246a9.755 9.755 0 0 0 4.877 8.448l7.14 4.122a9.754 9.754 0 0 0 9.753 0l7.142-4.122a9.754 9.754 0 0 0 4.878-8.448v-8.246a9.754 9.754 0 0 0-4.878-8.448l-7.142-4.123a9.754 9.754 0 0 0-9.753 0L5.982 5.43z"
    fill="#F0B237"
  ></path>
  <path
    fill-rule="evenodd"
    clip-rule="evenodd"
    d="M12.367 10.197h5.573a7.803 7.803 0 0 1 0 15.606h-6.316V10.197h.743zm.743 1.487v12.632h4.83a6.316 6.316 0 0 0 0-12.632h-4.83z"
    fill="#fff"
  ></path>
  <path
    d="M10.138 15.4h17.091v1.485H10.138V15.4zM10.138 19.115h17.091V20.6H10.138v-1.486z"
    fill="#fff"
  ></path>
</svg>
