<svg
  width="19"
  height="19"
  viewBox="0 0 36 36"
  fill="none"
  xmlns="http://www.w3.org/2000/svg"
>
  <path
    d="M5.982 5.429a9.754 9.754 0 0 0-4.877 8.448v8.246a9.755 9.755 0 0 0 4.877 8.448l7.14 4.122a9.754 9.754 0 0 0 9.753 0l7.142-4.122a9.754 9.754 0 0 0 4.878-8.448v-8.246a9.754 9.754 0 0 0-4.878-8.448l-7.142-4.123a9.754 9.754 0 0 0-9.753 0L5.982 5.43z"
    fill="#C2A633"
  ></path>
  <path
    fill-rule="evenodd"
    clip-rule="evenodd"
    d="M13.745 11.813h4.584c1.828.074 5.483 1.424 5.483 6.222s-3.662 6.1-5.492 6.152h-4.575v-5.462h-1.557v-1.372h1.557v-5.54zm2.372 2.361h2.215c1.038.059 3.115.914 3.115 3.866 0 2.95-2.076 3.757-3.115 3.79h-2.215v-3.114h2.512v-1.353h-2.512v-3.189z"
    fill="#fff"
  ></path>
</svg>
