<svg
  width="19"
  height="19"
  viewBox="0 0 36 36"
  fill="none"
  xmlns="http://www.w3.org/2000/svg"
>
  <path
    d="M6.65 6.127a9.213 9.213 0 0 0-4.607 7.979v7.788a9.213 9.213 0 0 0 4.606 7.979l6.743 3.893a9.213 9.213 0 0 0 9.212 0l6.745-3.893a9.213 9.213 0 0 0 4.607-7.98v-7.787a9.212 9.212 0 0 0-4.607-7.978l-6.745-3.894a9.212 9.212 0 0 0-9.212 0L6.65 6.127z"
    fill="#020034"
  ></path>
  <path
    d="M18.023 8.578a.59.59 0 0 1 .108.144l4.114 5.63c.054.072.09.162.108.252.595 2.815 1.173 5.63 1.768 8.444.018.108 0 .162-.09.217a1019.976 1019.976 0 0 0-5.9 3.554c-.09.054-.162.054-.253 0-1.966-1.191-3.933-2.364-5.9-3.537-.107-.054-.126-.126-.09-.234.596-2.833 1.191-5.647 1.769-8.48a.344.344 0 0 1 .09-.18c1.39-1.895 2.778-3.807 4.168-5.702l.108-.108zm-.018 1.498c-.054.054-.09.108-.127.162a356.917 356.917 0 0 1-3.067 4.204c-.09.126-.108.234-.054.397l3.194 9.526c.018.054.036.108.072.18.036-.09.054-.162.072-.216 1.065-3.175 2.129-6.369 3.194-9.544.036-.127.036-.199-.037-.307a873.29 873.29 0 0 1-3.139-4.258.593.593 0 0 0-.108-.144zM14.27 16.21h-.036c-.018.036-.018.072-.036.108-.433 2.093-.884 4.186-1.317 6.279-.018.108 0 .162.108.234 1.407.848 2.833 1.696 4.24 2.544l.144.073c-1.046-3.104-2.075-6.17-3.103-9.238zm4.384 9.238c.073-.037.109-.037.127-.055 1.425-.848 2.832-1.714 4.258-2.562.09-.054.108-.108.09-.198-.433-2.093-.884-4.204-1.317-6.297 0-.036-.018-.072-.054-.144a2807.998 2807.998 0 0 1-3.104 9.256z"
    fill="#fff"
  ></path>
</svg>
