<svg
  width="19"
  height="19"
  viewBox="0 0 36 36"
  fill="none"
  xmlns="http://www.w3.org/2000/svg"
>
  <path
    d="M6.65 6.127a9.213 9.213 0 0 0-4.607 7.979v7.788a9.213 9.213 0 0 0 4.606 7.979l6.744 3.893a9.213 9.213 0 0 0 9.212 0l6.745-3.893a9.213 9.213 0 0 0 4.606-7.98v-7.787a9.213 9.213 0 0 0-4.606-7.978l-6.745-3.894a9.212 9.212 0 0 0-9.212 0L6.649 6.127z"
    fill="#5E6072"
  ></path>
  <path
    fill-rule="evenodd"
    clip-rule="evenodd"
    d="M12.708 18.131L18 9.5l5.291 8.631C21.59 19.105 18 21.276 18 21.276s-3.59-2.17-5.292-3.145zM12.812 19.153L18 22.243V26.5l-5.188-7.347zm10.375 0L18 22.243V26.5l5.187-7.347z"
    fill="#fff"
  ></path>
</svg>
