<svg
  width="19"
  height="19"
  viewBox="0 0 128 128"
  fill="none"
  xmlns="http://www.w3.org/2000/svg"
>
  <path
    d="M23.378 22.342A32.755 32.755 0 0 0 7 50.709v27.693a32.755 32.755 0 0 0 16.378 28.367l23.975 13.843a32.758 32.758 0 0 0 32.754.001l23.982-13.844a32.756 32.756 0 0 0 16.38-28.369V50.71a32.755 32.755 0 0 0-16.38-28.368L80.107 8.498a32.755 32.755 0 0 0-32.754.002L23.378 22.342z"
    fill="#5FE7C5"
  ></path>
  <path
    fill-rule="evenodd"
    clip-rule="evenodd"
    d="M75.293 85.794V68.455H40.128v3.116h31.978v14.2h-3.12V74.78h-9.984v10.989H55.85V74.78h-3.134V85.77h-3.151V74.78h-3.162v11.016h-3.128V74.783h-3.157v11.014H37v-50.79h3.098V58.79h3.18V35.006h3.149v23.78h41.426v-3.221h-38.24v-20.56h3.102V52.34h35.14v-3.123h-31.94v-14.17h3.113v10.96h10.007V35.044h3.13v10.958h3.15V35.043h3.14V46.01h3.162V35h3.124v11.002h3.122v-11h3.13V85.8h-3.116V62.02h-3.149v23.775H81.59V62.017H40.13v3.228h38.277V85.79c-1.02.004-2.038.004-3.1.004h-.014zm1.887 7.07v.412h4.469v1.707h-6.33v-5.936h6.34v1.687h-4.475v.418h4.46v1.712H77.18zM52.802 89.04h-6.335c0 1.995 0 3.97-.002 5.945h1.846v-1.25h2.65v1.244h1.841v-5.94zm-1.906 2.872H48.31v-1.149h2.586v1.15zm38.232-.39V89.05H91V95h-.427c-.45.001-.895.002-1.34-.006-.074-.002-.16-.078-.22-.139-.55-.554-1.099-1.11-1.647-1.667h-.001l-.706-.717-.057.002-.03.002v2.51h-1.859V89.03h.424c.455-.001.906-.002 1.357.005.07.001.148.069.204.125.596.59 1.19 1.18 1.783 1.772l.002.002.589.587.027.002.03.001zM62.605 93.29h-4.878l.001-2.56h4.876v-1.685H55.86v5.938h6.744V93.29zm-21.124-.394h-2.56v2.085h-1.864v-5.937h1.845v1.995h2.572v-1.994h1.874v5.926H41.48l.001-2.075zm24.17-3.847v5.932h1.865v-2.086h2.76v2.083h1.846v-2.161h-1.654l-.01-.018a1.822 1.822 0 0 1-.023-.041l.157-.155c.468-.46.935-.92 1.399-1.383.061-.061.139-.147.14-.223.009-.492.008-.985.007-1.482v-.47h-1.863v1.993H67.5V89.05h-1.848z"
    fill="#fff"
  ></path>
</svg>
