<svg
  width="19"
  height="19"
  viewBox="0 0 36 36"
  fill="none"
  xmlns="http://www.w3.org/2000/svg"
>
  <path
    d="M6.65 6.127a9.213 9.213 0 0 0-4.607 7.979v7.788a9.213 9.213 0 0 0 4.607 7.979l6.743 3.893a9.213 9.213 0 0 0 9.212 0l6.745-3.893a9.213 9.213 0 0 0 4.607-7.98v-7.787a9.212 9.212 0 0 0-4.607-7.978l-6.745-3.894a9.212 9.212 0 0 0-9.212 0L6.65 6.127z"
    fill="#345D9D"
  ></path>
  <path
    d="M19.67 11.625h-2.655l-1.8 6.324-1.524.48-.376 1.3 1.526-.475-1.34 4.59h8.538l.646-2.279h-5.857l.915-3.211 1.573-.494.374-1.302-1.57.477 1.55-5.41z"
    fill="#fff"
  ></path>
</svg>
