<svg
  width="19"
  height="19"
  viewBox="0 0 128 128"
  fill="none"
  xmlns="http://www.w3.org/2000/svg"
>
  <path
    d="M23.378 22.342A32.755 32.755 0 0 0 7 50.709v27.693a32.755 32.755 0 0 0 16.378 28.367l23.975 13.843a32.758 32.758 0 0 0 32.754.001l23.982-13.844a32.756 32.756 0 0 0 16.38-28.369V50.71a32.755 32.755 0 0 0-16.38-28.368L80.107 8.498a32.755 32.755 0 0 0-32.754.002L23.378 22.342z"
    fill="#30D1D5"
  ></path>
  <path
    d="M80.406 35h1.29c.043.008.087.02.131.025.511.062 1.026.095 1.53.188 2.563.464 4.801 1.592 6.665 3.413 2.632 2.571 3.966 5.722 3.97 9.405.014 11.307.006 22.615.003 33.923 0 .414-.021.832-.056 1.245a12.408 12.408 0 0 1-1.006 3.97c-1.886 4.316-5.788 7.204-10.453 7.746a12.529 12.529 0 0 1-4.74-.352c-2.565-.69-4.738-2.034-6.471-4.054-2.078-2.421-3.143-5.244-3.157-8.438-.02-4.756-.005-9.513-.005-14.27v-.213c-2.742.216-5.48.063-8.219.3v.195c0 4.62-.001 9.242.001 13.864 0 .855-.073 1.7-.239 2.54-.496 2.517-1.618 4.717-3.407 6.552-2.363 2.426-5.248 3.737-8.627 3.936a12.505 12.505 0 0 1-5.162-.787 12.767 12.767 0 0 1-5.918-4.459 12.806 12.806 0 0 1-2.45-6.228c-.033-.276-.058-.555-.086-.833V47.481c.01-.048.02-.098.027-.146.085-.63.128-1.268.261-1.888.62-2.881 2.035-5.31 4.297-7.199 3.152-2.631 6.782-3.572 10.815-2.841 2.354.427 4.432 1.47 6.198 3.092 2.8 2.57 4.254 5.776 4.283 9.581.038 4.762.01 9.523.01 14.285v.212c2.743-.224 5.482-.065 8.219-.3v-.201-14.06c0-1.184.14-2.35.467-3.488 1.023-3.563 3.161-6.24 6.41-8.012a12.375 12.375 0 0 1 4.606-1.43c.269-.031.54-.058.813-.086zM54.579 63.126v-.146-15.037c0-.584-.062-1.16-.199-1.728-.8-3.336-3.584-5.684-7.006-5.898-1.582-.1-3.068.26-4.402 1.113-2.4 1.533-3.645 3.75-3.653 6.603-.02 6.852-.006 13.704-.006 20.555v.197c.046-.027.072-.04.094-.056.415-.296.824-.603 1.247-.887 1.57-1.057 3.293-1.796 5.059-2.45a43.18 43.18 0 0 1 8.02-2.128c.28-.046.558-.09.846-.138zm18.836 3.908v.159c0 5-.002 10.003.002 15.004 0 .355.02.713.07 1.064.255 1.784 1.025 3.315 2.352 4.53 1.99 1.822 4.333 2.464 6.956 1.855 3.493-.812 5.882-3.883 5.883-7.48.005-6.875.002-13.752.002-20.627v-.175l-.154.114a19.008 19.008 0 0 1-3.575 2.184c-2.336 1.081-4.765 1.897-7.258 2.525a43.368 43.368 0 0 1-4.278.847zm-18.836 1.455c-.062.007-.11.011-.159.02a37.145 37.145 0 0 0-6.1 1.562c-1.329.465-2.646.963-3.883 1.65-1.354.752-2.574 1.67-3.55 2.89-1.043 1.306-1.63 2.772-1.588 4.473.026 1.022.002 2.044.007 3.068.001.3.005.603.041.9.25 2.111 1.197 3.844 2.85 5.172 2.44 1.96 5.86 2.238 8.547.636 2.502-1.492 3.809-3.74 3.829-6.666.03-4.515.008-9.032.008-13.548-.002-.05-.002-.1-.002-.157zm18.836-6.836c.064-.007.113-.008.161-.016a36.682 36.682 0 0 0 5.275-1.287c1.628-.533 3.24-1.112 4.746-1.947 1.354-.75 2.57-1.676 3.54-2.9 1.028-1.298 1.603-2.754 1.559-4.437-.027-1.016.001-2.035-.008-3.051a8.53 8.53 0 0 0-.073-1.154c-.277-1.894-1.145-3.47-2.583-4.73-2.378-2.083-5.938-2.474-8.674-.889-2.569 1.488-3.916 3.755-3.936 6.738-.03 4.5-.007 9.001-.007 13.5v.173z"
    fill="#fff"
  ></path>
</svg>
