<svg
  width="19"
  height="19"
  viewBox="0 0 36 36"
  fill="none"
  xmlns="http://www.w3.org/2000/svg"
>
  <path
    d="M6.65 6.127a9.213 9.213 0 0 0-4.607 7.979v7.788a9.213 9.213 0 0 0 4.606 7.979l6.744 3.893a9.213 9.213 0 0 0 9.212 0l6.745-3.893a9.213 9.213 0 0 0 4.606-7.98v-7.787a9.213 9.213 0 0 0-4.606-7.978l-6.745-3.894a9.212 9.212 0 0 0-9.212 0L6.649 6.127z"
    fill="#2E9AD0"
  ></path>
  <path
    fill-rule="evenodd"
    clip-rule="evenodd"
    d="M14.684 11.012a.673.673 0 1 1 1.267-.39h3.454a.673.673 0 1 1 1.27.385l2.846 2.068a.673.673 0 0 1 .814 1.071l1.117 3.438a.673.673 0 0 1-.034 1.345l-1.06 3.265a.672.672 0 0 1 .14.833l1.263 1.112a.945.945 0 1 1-.183.2l-1.259-1.107a.67.67 0 0 1-.735.054l-2.861 2.079a.673.673 0 0 1-1.278.419H15.91a.673.673 0 0 1-1.276-.426l-2.896-2.104a.673.673 0 0 1-.748-1.119l-1.043-3.208a.673.673 0 1 1-.034-1.344l1.1-3.382a.673.673 0 1 1 .782-1.09l2.888-2.099zm4.892 14.077a.67.67 0 0 0-.175.423h-3.446a.67.67 0 0 0-.158-.404l1.592-2.195a.672.672 0 0 0 .563.006l1.624 2.17zm.616-.209a.678.678 0 0 0-.396.05l-1.623-2.17a.67.67 0 0 0 .176-.4l2.803-.329a.67.67 0 0 0 .176.337l-1.136 2.512zm.405.24a.676.676 0 0 0-.153-.139l1.112-2.459a.672.672 0 0 0 .832-.275l.857.35a.672.672 0 0 0 .129.506l-2.777 2.017zm-3.425-2.371l-1.589 2.192a.669.669 0 0 0-.391-.065l-1.184-2.489a.672.672 0 0 0 .195-.35l2.805.328c.013.146.073.28.165.384zm-3.396-.218l1.158 2.436a.675.675 0 0 0-.171.148l-2.833-2.058a.67.67 0 0 0 .104-.36v-.012l.94-.427a.673.673 0 0 0 .802.273zm6.584-11.218a.677.677 0 0 0 .146-.093l2.83 2.055a.67.67 0 0 0-.054.59l-.88.356a.673.673 0 0 0-.856-.294l-1.186-2.614zm-.43.049c.046.01.094.015.143.015h.018l1.23 2.709a.671.671 0 0 0-.175.362l-2.795-.414a.67.67 0 0 0-.158-.43l1.736-2.242zm-.503-.468c.042.143.13.267.248.353l-1.694 2.19a.67.67 0 0 0-.62.006l-1.659-2.213a.674.674 0 0 0 .226-.336h3.5zm-8.87 7.226a.674.674 0 0 0-.377-.476l1.09-3.353a.693.693 0 0 0 .118.006l.17 3.306a.674.674 0 0 0-.496.517h-.504zm1.271-.529c.027.005.054.01.08.018l1.285-2.49a.673.673 0 0 1-.318-.647l-.98-.436a.676.676 0 0 1-.239.194l.172 3.361zm1.959-3.673a.672.672 0 0 0-.827.294l-.947-.42a.676.676 0 0 0-.05-.468l2.892-2.1c.05.041.107.076.168.101l-1.236 2.593zm.412.47a.673.673 0 0 0-.182-.322l1.282-2.689a.67.67 0 0 0 .158-.022l1.696 2.261a.67.67 0 0 0-.148.403l-2.806.37zm2.853-.101l-2.845.374a.673.673 0 0 1-.263.427l1.22 2.505a.682.682 0 0 1 .357.033l1.718-3.078a.676.676 0 0 1-.187-.261zm-3.354.914l1.213 2.493a.674.674 0 0 0-.288.426h-2.242a.673.673 0 0 0-.233-.385l1.302-2.523a.68.68 0 0 0 .248-.01zm-1.317 3.19h2.242c.036.176.14.327.284.424l-1.17 2.44a.675.675 0 0 0-.303-.02l-1.284-2.46c.116-.096.2-.23.23-.384zm1.596 2.993l1.182-2.467a.673.673 0 0 0 .378-.038l1.681 2.934a.673.673 0 0 0-.18.282l-2.835-.332a.673.673 0 0 0-.226-.38zm3.473.287l-1.687-2.944a.672.672 0 0 0 .179-.336h3.472a.672.672 0 0 0 .17.328l-1.701 2.944a.673.673 0 0 0-.433.008zm2.147-3.891a.671.671 0 0 0-.183.34h-3.472a.672.672 0 0 0-.192-.348l1.727-3.092a.672.672 0 0 0 .378.007l1.742 3.093zm.584-.189a.681.681 0 0 0-.357.04l-1.727-3.067a.676.676 0 0 0 .2-.264l2.866.425a.674.674 0 0 0 .234.351l-1.216 2.515zm.552.529a.673.673 0 0 0-.298-.432l1.205-2.491a.674.674 0 0 0 .255.017l1.3 2.484a.674.674 0 0 0-.283.422h-2.18zm-.29.699a.674.674 0 0 0 .29-.428h2.179a.673.673 0 0 0 .278.42l-1.293 2.42a.68.68 0 0 0-.28.024l-1.175-2.436zm-.635.056a.673.673 0 0 0 .381.044l1.19 2.465a.673.673 0 0 0-.225.374l-2.837.333a.674.674 0 0 0-.198-.295l1.69-2.921zm-7.897.027l1.268 2.432a.673.673 0 0 0-.3.669l-.907.412a.676.676 0 0 0-.307-.319l.163-3.176a.682.682 0 0 0 .083-.018zm-.354.007a.674.674 0 0 1-.495-.518h-.504a.674.674 0 0 1-.349.462l1.034 3.181a.682.682 0 0 1 .154-.01l.16-3.115zm12.534-4.636l1.09 3.352a.674.674 0 0 0-.425.495h-.525a.674.674 0 0 0-.413-.49l.165-3.336a.667.667 0 0 0 .108-.021zm.14 4.118a.674.674 0 0 1-.413.491l.157 3.145a.668.668 0 0 1 .141.03l1.034-3.182a.674.674 0 0 1-.394-.484h-.525zm-.683.537a.674.674 0 0 1-.107-.012l-1.284 2.405a.673.673 0 0 1 .322.67l.86.351a.675.675 0 0 1 .366-.286l-.157-3.128zm-1.393-3.803l1.292 2.47a.672.672 0 0 1 .101-.012l.165-3.315a.673.673 0 0 1-.282-.17l-.95.383a.673.673 0 0 1-.327.644z"
    fill="#fff"
  ></path>
</svg>
