<svg
  width="19"
  height="19"
  viewBox="0 0 36 36"
  fill="none"
  xmlns="http://www.w3.org/2000/svg"
>
  <path
    d="M6.65 6.127a9.213 9.213 0 0 0-4.607 7.979v7.788a9.213 9.213 0 0 0 4.607 7.979l6.743 3.893a9.213 9.213 0 0 0 9.212 0l6.745-3.893a9.213 9.213 0 0 0 4.607-7.98v-7.787a9.212 9.212 0 0 0-4.607-7.978l-6.745-3.894a9.212 9.212 0 0 0-9.212 0L6.65 6.127z"
    fill="#B7373A"
  ></path>
  <path
    d="M16.825 25.969c-1.964-4.969-3.957-9.907-5.92-14.875.119.03.178.03.267.06.774.148 1.518.267 2.291.416.714.119 1.458.268 2.172.386.833.15 1.666.298 2.499.476.803.15 1.636.298 2.469.447.506.089 1.011.178 1.517.297.06 0 .09.03.149.06.922.862 1.815 1.725 2.737 2.588.119.119.119.119 0 .238-.922 1.1-1.815 2.231-2.737 3.332-.744.893-1.458 1.785-2.201 2.678-1.012 1.22-1.994 2.439-3.005 3.659l-.238.238zm-.03-2.202h.03c0-.06.03-.148.03-.208l.089-.625c.119-.863.208-1.725.327-2.588.119-1.012.238-2.023.387-3.035 0-.089 0-.148-.09-.208-.713-.595-1.457-1.19-2.171-1.815a146.358 146.358 0 0 0-2.44-2.023c-.149-.119-.268-.238-.416-.327 0 0-.03 0-.03.03 1.398 3.54 2.826 7.17 4.284 10.8zm6.783-7.2v-.029h-.149c-.773.149-1.576.268-2.35.416-.863.15-1.726.328-2.588.476-.06 0-.09.03-.09.12-.03.208-.059.416-.089.654-.119 1.011-.238 2.053-.387 3.064-.089.655-.148 1.31-.238 1.964-.03.178-.03.327-.059.506 0 0 .03 0 .03.03 1.963-2.38 3.927-4.79 5.92-7.2zm-2.44-2.736l-.059-.06c-2.678-.476-5.325-.982-8.003-1.458v.03c.03.03.03.06.06.06.416.357.833.684 1.25 1.041l1.963 1.606c.535.447 1.041.863 1.576 1.31.06.059.12.059.179 0 .178-.179.387-.328.595-.506.773-.655 1.547-1.28 2.32-1.934.03-.06.06-.06.12-.09zm2.589 1.874c-.03-.03-.03-.06-.06-.06l-1.606-1.517c-.06-.06-.09-.03-.149 0l-2.767 2.32c-.03.03-.089.06-.119.06 0 .03.03.03.03.06 1.547-.298 3.094-.566 4.67-.863z"
    fill="#fff"
  ></path>
</svg>
