<svg
  width="19"
  height="19"
  viewBox="0 0 128 128"
  fill="none"
  xmlns="http://www.w3.org/2000/svg"
>
  <path
    d="M23.378 23.342A32.755 32.755 0 0 0 7 51.709v27.693a32.755 32.755 0 0 0 16.378 28.367l23.975 13.843a32.758 32.758 0 0 0 32.754.001l23.982-13.844a32.756 32.756 0 0 0 16.38-28.369V51.71a32.755 32.755 0 0 0-16.38-28.368L80.107 9.498a32.755 32.755 0 0 0-32.754.002L23.378 23.342z"
    fill="#FF007A"
  ></path>
  <path
    fill-rule="evenodd"
    clip-rule="evenodd"
    d="M39.843 85.74v-.001c-.39-.715-.754-1.386-1.159-2.031-.982-1.563-1.809-3.174-2.097-5.027-.38-2.443.034-4.668 1.597-6.653 1.26-1.6 2.5-3.22 3.67-4.888 1.218-1.736 1.863-3.703 2.102-5.815.222-1.959.665-3.839 2.141-5.31.518-.517.465-1.133.121-1.754-1.25-2.255-2.497-4.514-3.743-6.772l-1.612-2.919-.1-.18c-.512-.926-1.024-1.851-1.46-2.827v.001a2006.601 2006.601 0 0 0 3.223 4.926h.001a810.84 810.84 0 0 1 4.681 7.196c1.215 1.896 2.75 2.017 4.634 1.109 1.199-.578 1.367-1.346.536-2.383a983.508 983.508 0 0 0-5.896-7.298c-3.733-4.572-7.471-9.14-11.21-13.709l-4.194-5.126a.28.28 0 0 1-.067-.279l.922.99a242.76 242.76 0 0 1 1.993 2.156c5.397 5.933 10.79 11.87 16.182 17.807l.329.362a313.245 313.245 0 0 1 4.254 4.75c.236.27.39.72.382 1.081-.047 2.273-1.566 3.862-4.187 4.436-.4.087-.805.157-1.21.226h-.001c-.24.041-.481.082-.722.127-1.17.22-1.829.94-1.996 2.1-.06.413-.097.83-.134 1.248-.07.785-.14 1.568-.357 2.31-.333 1.132-.777 2.233-1.221 3.333-.209.515-.416 1.03-.613 1.548-.052.138-.107.276-.163.414-.18.453-.362.907-.452 1.379-.323 1.701.12 3.216 1.422 4.38.681.609 1.42 1.154 2.158 1.7h.001c.21.154.419.309.626.465 1.431 1.074 2.11 2.43 1.745 4.253-.186.928-.729 1.6-1.387 2.198-2.103 1.906-4.697 2.76-7.392 3.376-.243.056-.489.097-.735.136-.063.015-.132-.01-.042.001-.2-.356-.387-.701-.57-1.036zm1.517-8.292c.012-1.134-1.11-1.968-2.01-1.492-.414.22-.537.544-.14.843.4.302.303.542.127.917-.112.24-.118.68.033.852.18.206.586.323.881.303.614-.046 1.1-.733 1.109-1.423zm27.967-22.225c2.146 1.876 4.69 2.263 7.217 2.648.352.054.704.107 1.055.165l.442.072c2.752.45 5.49.896 8.005 2.24 4.047 2.164 6.233 6.33 5.554 10.868-.122.816-.368 1.614-.615 2.411-.08.262-.162.523-.238.785-.056.191-.158.368-.274.569-.058.1-.12.207-.181.325-.064-.256-.118-.5-.17-.736-.111-.497-.212-.955-.376-1.389-.621-1.648-1.839-2.836-3.357-3.604-2.441-1.235-4.95-2.34-7.455-3.441l-.232-.102c-2.394-1.052-4.784-2.102-6.789-3.837-2.078-1.799-2.859-4.1-2.586-6.974zm18.458 3.862c-.587-2.974-2.019-5.332-3.953-7.567-.04.158-.072.306-.102.446-.06.284-.112.532-.222.754L83.37 53c-.386.788-.776 1.583-1.274 2.297-.35.5-1.095.488-1.527.113-.45-.39-.637-.88-.324-1.452.797-1.455.72-2.995.476-4.56-.088-.562-.341-.952-.852-1.212-.288-.147-.57-.307-.851-.468-.388-.221-.775-.442-1.18-.626-3.908-1.776-7.99-2.238-12.207-1.51-.644.112-1.072.003-1.516-.52-1.445-1.7-3.084-3.193-5.06-4.267-1.824-.992-3.777-1.454-6.052-1.401.113.034.198.061.266.083.108.035.172.056.238.066 3.315.528 5.938 2.27 8.086 4.747 1.6 1.848 3.11 3.776 4.61 5.706 2.151 2.771 4.835 4.719 8.352 5.233 1.746.255 3.508.4 5.27.546.74.06 1.48.122 2.218.191 2.206.206 4.143.911 5.427 2.863.03.044.076.077.149.13.044.032.1.071.167.125zM77.03 67.278l.625.36h.002c.378.217.744.427 1.109.64.597.347 1.197.688 1.797 1.03h.001c1.367.777 2.734 1.555 4.059 2.398 2.609 1.66 4.318 4.007 4.705 7.127.591 4.777-1.556 9.218-5.626 11.476-.099.054-.204.099-.342.157-.077.034-.166.071-.269.117.028-.087.05-.164.069-.232.037-.13.065-.23.11-.323 1.214-2.47 1.069-4.947-.229-7.286-.94-1.695-1.991-3.329-3.043-4.963-.344-.534-.688-1.069-1.028-1.605-1.047-1.653-2.014-3.342-2.285-5.319-.162-1.187-.162-2.38.345-3.577zm-7.135 26.908c1.867 2.288 5.348 2.417 7.618.354l-.406.12c-.284.086-.547.164-.813.23-3.309.813-5.334-.506-5.924-3.86-.077-.435-.148-.873-.22-1.31-.114-.702-.228-1.404-.365-2.1-.396-2.007-1.178-3.8-2.877-5.08-2.125-1.598-4.56-2.05-7.129-1.852-3.565.275-6.637 1.82-9.47 3.906a22.27 22.27 0 0 0-1.047.84v.001h-.001v.001c-.175.146-.358.298-.555.459.164.031.305.06.432.086.243.049.431.087.62.11 2.576.299 4.771 1.322 6.527 3.274.634.704 1.33 1.37 2.081 1.946 1.69 1.296 3.964 1.155 5.264-.254.804-.87 1.053-2.386.563-3.435-.434-.93-1.577-1.546-2.71-1.463-1.149.084-1.867.922-1.723 2.01.203-1.142.766-1.662 1.778-1.64 1.047.023 1.983.763 2.115 1.671.18 1.235-.524 2.375-1.662 2.7-1.41.401-3.233-.596-3.708-2.03a2.93 2.93 0 0 1 1.821-3.682c1.968-.685 3.647-.078 5.13 1.252 1.067.959 1.651 2.211 2.237 3.467.15.324.302.647.461.966l.03.058c.564 1.13 1.143 2.287 1.933 3.255zM52.474 41.19c2.089.058 4.058 1.477 4.747 3.505.397 1.173.692 2.384.952 3.596.3 1.401.964 2.616 1.708 3.81.096.155.145.339.194.522.023.086.046.172.074.255-.094.017-.19.04-.285.064-.208.053-.417.106-.617.081-1.217-.145-2.221-.78-3.085-1.591-2.784-2.614-3.872-5.918-3.8-9.665.003-.135.036-.269.07-.4.015-.06.03-.118.041-.177zM64.31 76.144c-2.08.377-4.079.968-5.819 2.221 2.106-.686 4.272-.853 6.444-1.021l.644-.05c1.656-.133 3.338-.355 4.925-.818 2.577-.752 5.225-3.244 4.785-7.166-.134-1.205-.586-2.267-1.452-3.157l.173.778c.935 4.222-1.201 7.55-5.433 8.427-1.034.213-2.076.397-3.116.581l-1.15.205zm-7.058-17.842c1.43.037 2.503.74 2.979 1.952.304.776.198 1.392-.452 1.876-1.323.986-2.839 1.266-4.434.944-.333-.068-.743-.443-.861-.77-.778-2.14 1.198-4.255 2.768-4.002zm.162 2.564c.854-.005 1.605-.55 1.597-1.158-.009-.599-.705-1.086-1.566-1.095-.045 0-.09.001-.136.004-.872.046-1.528.557-1.5 1.168.026.555.814 1.087 1.605 1.081zm24.454-18.008l-.08-1.164c-.023.064-.047.122-.07.177-.044.108-.082.2-.094.296l-.081.604a42.25 42.25 0 0 0-.267 2.283c-.05.62-.316.725-.836.513-.292-.12-.59-.228-.89-.329-.586-.197-1.174-.39-1.762-.584l-.378-.125c.574.386 1.155.743 1.734 1.1.42.258.84.516 1.254.783.912.587 1.407 1.472 1.49 2.54.07.915.109 1.832.148 2.771.017.412.034.829.054 1.252.024-.056.048-.106.07-.152.045-.092.083-.17.093-.252.056-.432.108-.863.16-1.295.083-.686.166-1.371.26-2.055.03-.218.104-.43.178-.643.033-.095.066-.19.095-.285.094.036.191.067.289.098.214.068.428.136.603.26.491.346.964.72 1.436 1.092.185.146.37.292.557.437-.762-1.011-1.601-1.925-2.469-2.813-.785-.804-1.307-1.72-1.382-2.86-.035-.545-.073-1.09-.112-1.65z"
    fill="#fff"
  ></path>
</svg>
