<svg
  width="19"
  height="19"
  viewBox="0 0 36 36"
  fill="none"
  xmlns="http://www.w3.org/2000/svg"
>
  <path
    d="M6.65 6.127a9.212 9.212 0 0 0-4.607 7.979v7.788a9.213 9.213 0 0 0 4.607 7.979l6.743 3.893a9.213 9.213 0 0 0 9.212 0l6.745-3.894a9.212 9.212 0 0 0 4.607-7.978v-7.788a9.212 9.212 0 0 0-4.607-7.978l-6.745-3.894a9.213 9.213 0 0 0-9.212 0L6.65 6.127z"
    fill="#2775C9"
  ></path>
  <path
    fill-rule="evenodd"
    clip-rule="evenodd"
    d="M21.2 16.232h-1.5a.95.95 0 0 0-.95-.95h-1.79a.66.66 0 0 0-.149 1.303l2.645.613a2.253 2.253 0 0 1-.51 4.448h-.196v1.135h-1.5v-1.135h-.023A2.426 2.426 0 0 1 14.8 19.22h1.5c0 .518.42.938.937.938h1.688a.773.773 0 0 0 .18-1.525l-2.667-.638a2.135 2.135 0 0 1 .497-4.212h1.814a2.45 2.45 0 0 1 2.45 2.449z"
    fill="#fff"
  ></path>
  <path d="M18.573 12.656v1.127h-1.5v-1.127h1.5z" fill="#fff"></path>
  <path
    fill-rule="evenodd"
    clip-rule="evenodd"
    d="M15.75 9.254a9.031 9.031 0 0 0 0 17.495v-1.103a7.969 7.969 0 0 1 0-15.291V9.255zm4.5 16.39a7.969 7.969 0 0 0 0-15.291V9.252c.776.2 1.538.508 2.266.928a9.031 9.031 0 0 1-2.266 16.568v-1.102z"
    fill="#fff"
  ></path>
</svg>
