<svg
  width="19"
  height="19"
  viewBox="0 0 36 36"
  fill="none"
  xmlns="http://www.w3.org/2000/svg"
>
  <path
    d="M5.982 5.429a9.754 9.754 0 0 0-4.877 8.448v8.246a9.755 9.755 0 0 0 4.877 8.448l7.14 4.122a9.754 9.754 0 0 0 9.753 0l7.142-4.122a9.754 9.754 0 0 0 4.878-8.448v-8.246a9.754 9.754 0 0 0-4.878-8.448l-7.142-4.123a9.754 9.754 0 0 0-9.753 0L5.982 5.43z"
    fill="#00A478"
  ></path>
  <path
    d="M23.184 11.813h-10.32v2.481h10.32v-2.482zM24.198 16.466c-.124-.093-.248-.186-.403-.248a4.151 4.151 0 0 0-.807-.28c-.558-.154-1.086-.216-1.644-.31a30.437 30.437 0 0 0-1.676-.124c-.155 0-.279 0-.434-.03v-1.18h-2.482v1.18c-.683.03-1.396.061-2.079.155a9.617 9.617 0 0 0-1.644.31c-.28.062-.559.155-.807.279-.124.062-.28.124-.403.248a.645.645 0 0 0-.248.497c0 .217.124.403.248.496.124.124.248.186.372.28.248.154.528.247.807.34.558.187 1.086.28 1.644.373.714.124 1.396.186 2.11.217v5.8h2.482v-5.8a16.209 16.209 0 0 0 2.11-.217 14.087 14.087 0 0 0 1.644-.373c.28-.093.527-.186.807-.34.124-.063.248-.156.372-.28.124-.124.248-.28.248-.496.062-.218-.093-.373-.217-.497zm-.559.9c-.217.124-.496.186-.744.248-.528.124-1.055.217-1.582.28-.528.061-1.086.092-1.645.123-.558.032-1.086.063-1.644.063-1.086 0-2.203-.031-3.258-.187a12.963 12.963 0 0 1-1.582-.279 5.23 5.23 0 0 1-.745-.248c-.248-.093-.465-.28-.465-.403 0-.062.031-.125.124-.218s.186-.155.31-.217c.218-.124.466-.217.745-.31.527-.155 1.055-.28 1.582-.372.683-.093 1.365-.155 2.048-.217V17.8h2.482V15.63c.124 0 .28 0 .403.03.559.032 1.086.125 1.645.187.527.093 1.085.217 1.582.372.248.093.496.186.744.31.125.062.218.124.31.217.094.093.125.156.125.218 0 .124-.217.279-.435.403z"
    fill="#fff"
  ></path>
</svg>
