<svg
  width="19"
  height="19"
  viewBox="0 0 36 36"
  fill="none"
  xmlns="http://www.w3.org/2000/svg"
>
  <path
    d="M6.65 6.127a9.213 9.213 0 0 0-4.607 7.979v7.788a9.213 9.213 0 0 0 4.606 7.979l6.744 3.893a9.213 9.213 0 0 0 9.212 0l6.745-3.893a9.213 9.213 0 0 0 4.606-7.98v-7.787a9.213 9.213 0 0 0-4.606-7.978l-6.745-3.894a9.212 9.212 0 0 0-9.212 0L6.649 6.127z"
    fill="#5E6072"
  ></path>
  <path
    fill-rule="evenodd"
    clip-rule="evenodd"
    d="M11.271 16.502a14.583 14.583 0 0 1-.424-3.093c-.002-.053.003-.064.02-.093.008-.013.015-.025.116-.079a15.021 15.021 0 0 1 7.016-1.745c.525 0 1.057.029 1.588.086a4.246 4.246 0 0 0-2.127 3.703v.008a3.185 3.185 0 0 1-1.568 2.739 3.228 3.228 0 0 1-1.649.453 3.254 3.254 0 0 1-2.972-1.98zM20.556 23.7a14.596 14.596 0 0 1-2.322 1.817c-.064.04-.096.053-.226.053-.143 0-.184-.016-.242-.053a15.027 15.027 0 0 1-5.636-6.522c.645.364 1.376.56 2.113.56a4.306 4.306 0 0 0 2.2-.604c.472-.261 1.01-.4 1.557-.4a3.22 3.22 0 0 1 1.545.394l.03.017c.024.014.048.027.075.044a3.22 3.22 0 0 1 1.566 2.752 3.22 3.22 0 0 1-.66 1.942zM22.294 21.715a4.297 4.297 0 0 0-2.188-3.687l-.014-.009a3.181 3.181 0 0 1-1.553-2.742v-.041a3.215 3.215 0 0 1 3.709-3.128 14.753 14.753 0 0 1 2.769 1.13c.101.053.108.065.116.078.017.03.021.04.02.092a14.964 14.964 0 0 1-2.859 8.307z"
    fill="#fff"
  ></path>
</svg>
