<svg
  width="19"
  height="19"
  viewBox="0 0 37 36"
  fill="none"
  xmlns="http://www.w3.org/2000/svg"
>
  <path
    d="M7.605 6.127A9.213 9.213 0 0 0 3 14.106v7.788a9.213 9.213 0 0 0 4.606 7.979l6.743 3.893a9.213 9.213 0 0 0 9.212 0l6.745-3.893a9.213 9.213 0 0 0 4.607-7.98v-7.787a9.213 9.213 0 0 0-4.607-7.978L23.56 2.234a9.212 9.212 0 0 0-9.212 0L7.605 6.127z"
    fill="#5E6072"
  ></path>
  <path
    d="M11.187 22.757c.029-.014.057-.014.071-.028.85-.439 1.7-.892 2.535-1.33 1.189-.638 2.392-1.261 3.582-1.884 1.16-.609 2.336-1.232 3.497-1.84 1.161-.61 2.336-1.233 3.497-1.841.765-.397 1.53-.807 2.28-1.204.028-.014.043-.028.07-.042.015.042.043 1.203.03 1.345-.1.056-.213.113-.312.17-.085.042-.17.085-.255.141-.425.24-.666.708-.623 1.19.028.212.028.438.028.65 0 .482-.056.964-.17 1.445a6.688 6.688 0 0 1-1.628 3.016 6.664 6.664 0 0 1-2.591 1.7c-.468.169-.963.282-1.459.339l-.538.042c-.028 0-.042 0-.07.015h-.199c-.028 0-.042-.015-.07-.015-.354 0-.694-.028-1.048-.099a6.53 6.53 0 0 1-2.634-1.076c-.028-.014-.042-.028-.07-.056.41-.227.82-.44 1.231-.652a5.364 5.364 0 0 0 3.37.595 5.271 5.271 0 0 0 3.058-1.53 5.28 5.28 0 0 0 1.501-2.817 5.47 5.47 0 0 0 .043-1.798.231.231 0 0 0-.085.042c-.51.27-1.006.538-1.515.793-1.997 1.048-4.007 2.11-6.004 3.158-1.826.963-3.639 1.911-5.465 2.874-.014.014-.043.014-.057.014v-1.317zM19.102 11.36c.029 0 .043.014.071.014a6.475 6.475 0 0 1 3.54 1.16c.028.015.042.029.07.057-.028.014-.042.029-.056.029-.368.198-.75.396-1.119.594-.042.014-.07.014-.099 0a5.536 5.536 0 0 0-1.77-.58 5.45 5.45 0 0 0-4.545 1.473 5.368 5.368 0 0 0-1.571 2.944c-.071.425-.1.864-.071 1.303l.042.382c0 .014 0 .014.014.043a3789.99 3789.99 0 0 1 13.098-6.896c.014.057.042 1.204.028 1.345-.1.057-.212.114-.312.17-1.982 1.048-3.964 2.082-5.946 3.13-1.968 1.019-3.908 2.053-5.862 3.072-.58.311-1.161.609-1.728.92-.552.298-1.104.58-1.656.878-.014.014-.043.014-.057.029 0-.454-.014-.907-.014-1.36.014 0 .028 0 .042-.014.199-.099.383-.198.58-.297.383-.227.596-.567.61-1.02 0-.099-.014-.198-.014-.297-.029-.623 0-1.246.141-1.87a6.684 6.684 0 0 1 3.398-4.445 6.423 6.423 0 0 1 2.69-.736c.015 0 .043-.014.057-.014.128-.015.284-.015.44-.015z"
    fill="#fff"
  ></path>
</svg>
