<svg
  width="19"
  height="19"
  viewBox="0 0 36 36"
  fill="none"
  xmlns="http://www.w3.org/2000/svg"
>
  <path
    d="M6.606 6.127A9.213 9.213 0 0 0 2 14.106v7.788a9.213 9.213 0 0 0 4.606 7.979l6.743 3.893a9.213 9.213 0 0 0 9.212 0l6.745-3.893a9.213 9.213 0 0 0 4.607-7.98v-7.787a9.213 9.213 0 0 0-4.607-7.978l-6.745-3.894a9.213 9.213 0 0 0-9.212 0L6.606 6.127z"
    fill="#5E6072"
  ></path>
  <path
    d="M19.594 24.623a2.954 2.954 0 0 1-1.47-2.545c0-.54.217-1.085.49-1.57.218-.435.325-1.192-.436-1.572-.542-.323-1.252-.108-1.577.434-.325.434-.705.868-1.196 1.192-.923.54-2.013.54-2.936 0A2.957 2.957 0 0 1 11 18.014a2.95 2.95 0 0 1 1.469-2.547 2.862 2.862 0 0 1 2.936 0c.49.271.871.703 1.141 1.191.218.38.817.868 1.577.434.543-.323.706-1.03.436-1.57-.273-.49-.436-1.031-.436-1.571 0-1.03.543-2.005 1.47-2.546a2.862 2.862 0 0 1 2.937 0A2.954 2.954 0 0 1 24 13.951c0 1.029-.544 2.005-1.47 2.546-.49.272-1.035.38-1.632.38-.49 0-1.141.323-1.141 1.137 0 .65.49 1.137 1.14 1.137.544 0 1.142.107 1.633.379A2.954 2.954 0 0 1 24 22.075a2.948 2.948 0 0 1-1.47 2.546c-.436.271-.979.379-1.469.379-.488.003-1.034-.108-1.467-.377"
    fill="#fff"
  ></path>
</svg>
