<svg
  width="19"
  height="19"
  viewBox="0 0 36 36"
  fill="none"
  xmlns="http://www.w3.org/2000/svg"
>
  <path
    d="M6.65 6.127a9.212 9.212 0 0 0-4.607 7.979v7.788a9.213 9.213 0 0 0 4.607 7.979l6.743 3.893a9.213 9.213 0 0 0 9.212 0l6.745-3.893a9.213 9.213 0 0 0 4.607-7.98v-7.787a9.213 9.213 0 0 0-4.607-7.978l-6.745-3.894a9.213 9.213 0 0 0-9.212 0L6.65 6.127z"
    fill="#407EEF"
  ></path>
  <path
    d="M19.125 27c-1.213 0-2.098-.284-2.653-.87-.555-.584-.824-1.197-.824-1.873 0-.239.046-.45.151-.616a.968.968 0 0 1 .39-.389c.166-.09.374-.15.615-.15.242 0 .45.044.616.15.166.09.298.223.389.39.09.165.15.373.15.615 0 .299-.075.54-.21.718a1.027 1.027 0 0 1-.51.374c.166.224.434.39.793.495.36.106.719.151 1.08.151a2.4 2.4 0 0 0 1.365-.404c.404-.269.703-.673.899-1.198.196-.525.284-1.123.284-1.799 0-.733-.106-1.349-.314-1.859-.212-.525-.51-.914-.915-1.152a2.418 2.418 0 0 0-1.318-.375c-.314 0-.688.136-1.153.39l-.845.404v-.42l3.82-5.093h-5.287v5.29c0 .434.09.793.284 1.08.196.284.495.42.884.42.314 0 .6-.106.884-.314.284-.212.526-.465.734-.749.03-.06.06-.105.09-.12.046-.03.076-.046.12-.046.076 0 .152.03.254.106.091.106.136.223.136.359 0 .06-.03.15-.045.268-.211.495-.51.87-.9 1.123-.389.254-.808.39-1.273.39-1.153 0-1.934-.224-2.384-.674-.434-.45-.658-1.065-.658-1.828v-5.305h-2.697v-.99h2.713V11.25l-.616-.616v-.51h1.798l.673.344v3.015l6.998-.015.688.688-4.282 4.303c.254-.106.525-.166.81-.196.464 0 .989.15 1.556.45a3.167 3.167 0 0 1 1.35 1.197c.313.51.524.99.615 1.455.09.465.15.869.15 1.243a5.17 5.17 0 0 1-.524 2.294 3.337 3.337 0 0 1-1.588 1.587c-.706.344-1.47.51-2.293.51z"
    fill="#fff"
  ></path>
</svg>
