<svg
  width="19"
  height="19"
  viewBox="0 0 128 128"
  fill="none"
  xmlns="http://www.w3.org/2000/svg"
>
  <path
    d="M23.643 21.785A32.756 32.756 0 0 0 7.266 50.152v27.694a32.757 32.757 0 0 0 16.377 28.367l23.976 13.842a32.755 32.755 0 0 0 32.753.001l23.983-13.844a32.755 32.755 0 0 0 16.38-28.368v-27.69a32.755 32.755 0 0 0-16.38-28.368L80.372 7.942a32.755 32.755 0 0 0-32.753 0L23.643 21.786z"
    fill="#EC3323"
  ></path>
  <g clip-path="url(#clip0)" fill="#fff">
    <path
      d="M43.482 79.636V35h5.293v44.636h-5.293zM78.099 55.282h1.75c1.5 0 3-.003 4.5.005.125 0 .286.037.368.119 1.186 1.182 2.431 2.315 3.396 3.694 1.738 2.486 3.114 5.144 3.696 8.144.768 3.958-.718 9.13-5.379 11.653-1.87 1.013-3.891 1.514-5.991 1.743-2.547.278-5.028-.055-7.462-.812-.2-.062-.27-.145-.268-.35.02-1.5.027-3.001.043-4.502.002-.141.04-.282.063-.438.779.212 1.515.41 2.25.613 2.028.558 4.052.595 6.072-.036.98-.307 1.898-.745 2.752-1.312 2.073-1.374 2.932-3.306 2.61-5.75-.276-2.112-1.115-4.022-2.226-5.821-1.456-2.357-3.366-4.323-5.421-6.16-.266-.239-.53-.479-.794-.718l.04-.072zM43.23 90.663c-.288-.192-.535-.322-.742-.499-.657-.563-1.095-1.255-1.228-2.124-.151-.988-.225-1.977.015-2.96.347-1.42 1.209-2.433 2.548-3.018 1.851-.808 3.74-.797 5.632-.153.743.252.826.408.828 1.188.003.665.001 1.33.001 2.029-.088-.03-.159-.039-.215-.074-.774-.468-1.63-.67-2.519-.716-.571-.028-1.146.015-1.72.034-1.416.046-2.444 1.697-1.838 3.163.436 1.059 1.312 1.604 2.393 1.849 1.053.238 2.095.059 3.13-.141.345-.067.69-.131 1.032-.207.2-.045.314.01.316.223.01.75.018 1.5.023 2.248.002.263-.135.38-.398.44-3.052.67-6.102 1.35-9.15 2.038-.247.056-.311-.028-.315-.238-.011-.771-.03-1.542-.021-2.313 0-.087.14-.222.24-.25.643-.182 1.29-.34 1.988-.519zM58.223 76.65c.034-1.5.723-2.594 1.988-3.308 1.025-.58 2.742-.291 3.66.445 1.744 1.4 1.545 4.365.336 5.498-1.003.94-2.106 1.32-3.437.928-1.336-.395-2.19-1.256-2.444-2.644-.057-.31-.071-.63-.103-.919z"
    ></path>
  </g>
  <defs>
    <clipPath id="clip0">
      <path fill="#fff" transform="translate(41 35)" d="M0 0h51v59H0z"></path>
    </clipPath>
  </defs>
</svg>
