<svg
  width="19"
  height="19"
  viewBox="0 0 128 128"
  fill="none"
  xmlns="http://www.w3.org/2000/svg"
>
  <path
    d="M23.643 21.785A32.756 32.756 0 0 0 7.266 50.152v27.694a32.757 32.757 0 0 0 16.377 28.367l23.976 13.842a32.755 32.755 0 0 0 32.753.001l23.983-13.844a32.755 32.755 0 0 0 16.38-28.368v-27.69a32.755 32.755 0 0 0-16.38-28.368L80.372 7.942a32.755 32.755 0 0 0-32.753 0L23.643 21.786z"
    fill="#7FABDA"
  ></path>
  <path
    d="M40.61 73.875H30.366L28.352 81h-6.938l11.18-34.125h5.976L49.54 81h-6.938l-1.993-7.125zm-8.626-5.602h7.078L35.57 55.711l-3.586 12.562zM64.234 68.25h-4.992V81h-6.586V46.875h11.438c1.89 0 3.601.227 5.133.68 1.53.437 2.835 1.086 3.914 1.945a8.432 8.432 0 0 1 2.507 3.21c.594 1.282.891 2.767.891 4.454 0 1.219-.148 2.32-.445 3.305a8.84 8.84 0 0 1-1.242 2.625 8.81 8.81 0 0 1-1.946 2.015 12.586 12.586 0 0 1-2.531 1.5l7.336 14.086V81h-7.055l-6.422-12.75zm-4.992-5.344h4.875c1.86 0 3.29-.468 4.29-1.406 1.015-.953 1.523-2.25 1.523-3.89 0-1.704-.493-3.024-1.477-3.962-.984-.953-2.437-1.43-4.36-1.43h-4.85v10.688zM99.203 72.094c0-.61-.11-1.18-.328-1.711-.203-.531-.563-1.024-1.078-1.477-.5-.469-1.164-.89-1.992-1.265-.813-.391-1.828-.75-3.047-1.079a29.365 29.365 0 0 1-4.266-1.523c-1.344-.61-2.531-1.344-3.562-2.203a10.362 10.362 0 0 1-2.485-3c-.61-1.14-.914-2.453-.914-3.938 0-1.437.305-2.742.914-3.914a8.963 8.963 0 0 1 2.532-3c1.078-.828 2.351-1.46 3.82-1.898 1.469-.453 3.062-.68 4.781-.68 1.781 0 3.406.258 4.875.774 1.484.515 2.758 1.242 3.82 2.18a9.755 9.755 0 0 1 2.485 3.304c.594 1.281.89 2.688.89 4.219h-6.421a6.495 6.495 0 0 0-.422-2.11 4.178 4.178 0 0 0-1.078-1.64c-.47-.469-1.063-.828-1.782-1.078-.703-.266-1.53-.399-2.484-.399-.875 0-1.656.11-2.344.328-.672.203-1.242.5-1.71.891a3.788 3.788 0 0 0-1.079 1.36 4.03 4.03 0 0 0-.351 1.687c0 .64.156 1.219.468 1.734.328.516.797.985 1.407 1.407.609.406 1.343.78 2.203 1.124.875.344 1.86.665 2.953.961 1.562.454 3 1.008 4.312 1.664 1.313.657 2.438 1.438 3.375 2.344a9.416 9.416 0 0 1 2.203 3.07c.532 1.141.797 2.415.797 3.82 0 1.5-.304 2.837-.914 4.009a8.664 8.664 0 0 1-2.484 2.953c-1.063.797-2.328 1.406-3.797 1.828-1.469.406-3.07.61-4.805.61-1.078 0-2.156-.102-3.234-.305a14.74 14.74 0 0 1-3.07-.891 13.63 13.63 0 0 1-2.72-1.523 10.572 10.572 0 0 1-2.202-2.133 10.13 10.13 0 0 1-1.453-2.766c-.344-1.031-.516-2.172-.516-3.422h6.469c.031 1.031.21 1.914.539 2.649a4.799 4.799 0 0 0 1.36 1.804c.593.47 1.296.813 2.109 1.032.828.218 1.734.328 2.718.328.875 0 1.649-.102 2.32-.305.688-.203 1.266-.484 1.735-.844.469-.36.828-.789 1.078-1.289.25-.515.375-1.078.375-1.687z"
    fill="#fff"
  ></path>
</svg>
