<svg
  width="19"
  height="19"
  viewBox="0 0 128 128"
  fill="none"
  xmlns="http://www.w3.org/2000/svg"
>
  <path
    d="M23.378 22.342A32.755 32.755 0 0 0 7 50.709v27.693a32.755 32.755 0 0 0 16.378 28.367l23.975 13.843a32.758 32.758 0 0 0 32.754.001l23.982-13.844a32.756 32.756 0 0 0 16.38-28.369V50.71a32.755 32.755 0 0 0-16.38-28.368L80.107 8.498a32.755 32.755 0 0 0-32.754.002L23.378 22.342z"
    fill="#4FB7DF"
  ></path>
  <path
    d="M30 84.87c.053-.564.11-1.129.159-1.694.674-7.865 2.2-15.536 5.187-22.87 1.703-4.183 3.865-8.104 6.724-11.61 3.744-4.595 8.322-8.009 13.956-9.92a30.01 30.01 0 0 1 5.079-1.236c.211-.032.257-.115.26-.308.028-1.281.064-2.563.095-3.843.003-.14.018-.241.176-.31 1.571-.667 3.138-1.346 4.707-2.02.039-.019.083-.027.189-.059l.024 6.144c.644.08 1.233.14 1.819.227 2.344.348 4.557 1.113 6.667 2.181 3.956 2.003 7.26 4.827 10.12 8.196 3.787 4.46 6.522 9.53 8.55 15.005 1.448 3.911 2.478 7.935 3.173 12.048.594 3.514.94 7.051 1.068 10.612.004.112.028.222.042.334L98 87l-4.951-.21c-.66-.028-1.32-.053-2.011-.08-.035-.445-.065-.877-.104-1.306-.183-2.032-.333-4.067-.561-6.094-.76-6.719-1.984-13.333-4.488-19.649-1.384-3.491-3.15-6.765-5.567-9.657-3.531-4.227-7.974-6.86-13.41-7.76-.064-.01-.13-.007-.23-.012v.285l.467 28.759c.043 2.648.082 5.296.129 7.944.003.17-.035.273-.19.363-2.231 1.293-4.458 2.594-6.687 3.892-.054.032-.112.059-.227.117l1.062-41.397c-.665.194-1.295.352-1.909.56-3.086 1.037-5.802 2.721-8.253 4.85-3.776 3.278-6.588 7.284-8.745 11.778-1.784 3.716-3.022 7.617-3.874 11.647a67.824 67.824 0 0 0-1.382 10.625c-.083 1.64-.107 3.282-.156 4.923-.003.102 0 .204 0 .352l-6.904-.295c-.004-.588-.007-1.177-.009-1.765z"
    fill="#fff"
  ></path>
</svg>
