<svg
  width="19"
  height="19"
  viewBox="0 0 128 128"
  fill="none"
  xmlns="http://www.w3.org/2000/svg"
>
  <path
    d="M23.643 21.785A32.756 32.756 0 0 0 7.266 50.152v27.694a32.757 32.757 0 0 0 16.377 28.367l23.976 13.842a32.755 32.755 0 0 0 32.753.001l23.983-13.844a32.755 32.755 0 0 0 16.38-28.368v-27.69a32.755 32.755 0 0 0-16.38-28.368L80.372 7.942a32.755 32.755 0 0 0-32.753 0L23.643 21.786z"
    fill="#3F9371"
  ></path>
  <path
    d="M61.023 46.875V81h-6.609V52.219H47.36l-.117 12.515c-.047 2.985-.281 5.508-.703 7.57-.406 2.063-1 3.743-1.781 5.04-.781 1.281-1.758 2.21-2.93 2.789-1.172.578-2.539.867-4.101.867h-1.641v-5.297h.937c.766-.078 1.375-.305 1.829-.68.468-.39.828-1 1.078-1.828.265-.843.445-1.945.539-3.304.093-1.375.156-3.094.187-5.157l.14-17.859h20.227zM67.234 81V55.64h10.524c1.64 0 3.117.15 4.43.446 1.328.281 2.453.719 3.374 1.312.938.579 1.649 1.313 2.133 2.204.5.89.75 1.93.75 3.117 0 1.172-.382 2.226-1.148 3.164-.766.922-1.883 1.633-3.352 2.133.97.187 1.813.468 2.532.843.718.375 1.312.813 1.78 1.313.485.5.845 1.055 1.079 1.664.234.61.352 1.25.352 1.922 0 1.203-.235 2.258-.704 3.164-.453.906-1.117 1.664-1.992 2.273-.875.594-1.953 1.047-3.234 1.36-1.266.297-2.719.445-4.36.445H67.234zm6.516-10.57v5.39h5.648c1.313 0 2.266-.226 2.86-.68.61-.453.914-1.117.914-1.992 0-.812-.29-1.468-.867-1.968-.578-.5-1.547-.75-2.907-.75H73.75zm0-4.43h4.36c1.328-.031 2.296-.25 2.906-.656.609-.406.914-1 .914-1.781 0-.954-.352-1.641-1.055-2.063-.688-.422-1.727-.633-3.117-.633H73.75V66z"
    fill="#fff"
  ></path>
</svg>
