<svg
  width="19"
  height="19"
  viewBox="0 0 128 128"
  fill="none"
  xmlns="http://www.w3.org/2000/svg"
>
  <path
    d="M23.643 21.785A32.756 32.756 0 0 0 7.266 50.152v27.694a32.757 32.757 0 0 0 16.377 28.367l23.976 13.842a32.755 32.755 0 0 0 32.753.001l23.983-13.844a32.755 32.755 0 0 0 16.38-28.368v-27.69a32.755 32.755 0 0 0-16.38-28.368L80.372 7.942a32.755 32.755 0 0 0-32.753 0L23.643 21.786z"
    fill="#429847"
  ></path>
  <path
    d="M49.82 68.25h-4.992V81h-6.586V46.875H49.68c1.89 0 3.601.227 5.133.68 1.53.437 2.835 1.086 3.914 1.945a8.434 8.434 0 0 1 2.507 3.21c.594 1.282.891 2.767.891 4.454 0 1.219-.148 2.32-.445 3.305a8.837 8.837 0 0 1-1.242 2.625 8.811 8.811 0 0 1-1.946 2.015 12.587 12.587 0 0 1-2.531 1.5l7.336 14.086V81h-7.055L49.82 68.25zm-4.992-5.344h4.875c1.86 0 3.29-.468 4.29-1.406 1.015-.953 1.523-2.25 1.523-3.89 0-1.704-.493-3.024-1.477-3.962-.984-.953-2.437-1.43-4.36-1.43h-4.85v10.688zM84.227 72.047c0-.656-.102-1.234-.305-1.734a3.709 3.709 0 0 0-.938-1.407c-.421-.422-.984-.804-1.687-1.148-.688-.36-1.524-.711-2.508-1.055a43.897 43.897 0 0 1-4.312-1.781c-1.297-.625-2.407-1.352-3.329-2.18a8.866 8.866 0 0 1-2.109-2.883c-.5-1.109-.75-2.422-.75-3.937 0-1.328.227-2.54.68-3.633a8.484 8.484 0 0 1 1.922-2.883c.828-.812 1.828-1.468 3-1.968 1.171-.5 2.476-.82 3.914-.961v-5.04h3.75v5.086c1.406.188 2.672.57 3.797 1.149a9.073 9.073 0 0 1 2.859 2.273c.797.922 1.406 2.016 1.828 3.282.438 1.25.656 2.656.656 4.218H84.18c0-1.89-.43-3.32-1.29-4.289-.859-.984-2.023-1.476-3.492-1.476-.796 0-1.492.11-2.085.328-.579.203-1.055.5-1.43.89-.375.375-.656.82-.844 1.336a5.307 5.307 0 0 0-.258 1.688c0 .61.086 1.156.258 1.64.188.47.492.907.914 1.313.438.406 1.008.797 1.711 1.172.703.36 1.578.726 2.625 1.101A45.24 45.24 0 0 1 84.58 63c1.28.625 2.374 1.36 3.28 2.203a8.376 8.376 0 0 1 2.11 2.906c.5 1.094.75 2.391.75 3.891 0 1.375-.227 2.617-.68 3.727a8.138 8.138 0 0 1-1.945 2.835c-.844.797-1.86 1.438-3.047 1.922-1.188.47-2.516.774-3.984.914v4.594h-3.727v-4.594a15.583 15.583 0 0 1-3.867-.867 10.324 10.324 0 0 1-3.328-2.015c-.954-.875-1.72-1.977-2.297-3.305-.578-1.344-.867-2.953-.867-4.828h6.539c0 1.125.164 2.07.492 2.836.328.75.75 1.351 1.265 1.804.532.438 1.133.75 1.805.938.672.187 1.36.281 2.063.281 1.671 0 2.937-.39 3.796-1.172.86-.78 1.29-1.789 1.29-3.023z"
    fill="#fff"
  ></path>
</svg>
