<svg
  width="19"
  height="19"
  viewBox="0 0 128 128"
  fill="none"
  xmlns="http://www.w3.org/2000/svg"
>
  <path
    d="M23.643 21.785A32.756 32.756 0 0 0 7.266 50.152v27.694a32.757 32.757 0 0 0 16.377 28.367l23.976 13.842a32.755 32.755 0 0 0 32.753.001l23.983-13.844a32.755 32.755 0 0 0 16.38-28.368v-27.69a32.755 32.755 0 0 0-16.38-28.368L80.372 7.942a32.755 32.755 0 0 0-32.753 0L23.643 21.786z"
    fill="#C53C2C"
  ></path>
  <path
    d="M47.523 70.313c-.109 1.718-.484 3.265-1.125 4.64-.625 1.375-1.468 2.547-2.53 3.516-1.063.969-2.329 1.719-3.798 2.25-1.468.515-3.093.773-4.875.773-2.015 0-3.804-.367-5.367-1.101a11.151 11.151 0 0 1-3.937-3.118c-1.063-1.343-1.875-2.953-2.438-4.828-.562-1.875-.844-3.937-.844-6.187v-4.594c0-2.266.297-4.336.891-6.21.594-1.876 1.438-3.485 2.531-4.829a11.299 11.299 0 0 1 3.961-3.117c1.563-.75 3.313-1.125 5.25-1.125 1.875 0 3.54.265 4.992.797 1.47.53 2.72 1.289 3.75 2.273 1.032.984 1.844 2.188 2.438 3.61.594 1.421.969 3.023 1.125 4.804h-6.563c-.062-1.015-.218-1.906-.468-2.672-.235-.765-.586-1.398-1.055-1.898-.453-.516-1.031-.899-1.734-1.149-.688-.265-1.516-.398-2.485-.398-1.015 0-1.898.219-2.648.656-.75.438-1.375 1.078-1.875 1.922-.485.844-.844 1.883-1.078 3.117-.235 1.22-.352 2.61-.352 4.172v4.64c0 3.36.469 5.845 1.406 7.454.953 1.61 2.453 2.414 4.5 2.414 1.72 0 3.078-.453 4.078-1.36 1-.921 1.555-2.406 1.664-4.453h6.586zM69.438 73.875H59.194L57.18 81h-6.938l11.18-34.125h5.976L78.368 81H71.43l-1.993-7.125zm-8.626-5.602h7.079l-3.493-12.562-3.585 12.562zM98.64 72.047c0-.656-.1-1.234-.304-1.734a3.709 3.709 0 0 0-.938-1.407c-.421-.422-.984-.804-1.687-1.148-.688-.36-1.523-.711-2.508-1.055a43.918 43.918 0 0 1-4.312-1.781c-1.297-.625-2.407-1.352-3.329-2.18a8.865 8.865 0 0 1-2.109-2.883c-.5-1.109-.75-2.422-.75-3.937 0-1.328.227-2.54.68-3.633a8.484 8.484 0 0 1 1.922-2.883c.828-.812 1.828-1.468 3-1.968s2.476-.82 3.914-.961v-5.04h3.75v5.086c1.406.188 2.672.57 3.797 1.149a9.067 9.067 0 0 1 2.859 2.273c.797.922 1.406 2.016 1.828 3.282.438 1.25.656 2.656.656 4.218h-6.515c0-1.89-.43-3.32-1.29-4.289-.859-.984-2.023-1.476-3.492-1.476-.796 0-1.492.11-2.085.328-.579.203-1.055.5-1.43.89-.375.375-.656.82-.844 1.336a5.307 5.307 0 0 0-.258 1.688c0 .61.086 1.156.258 1.64.188.47.492.907.914 1.313.438.406 1.008.797 1.711 1.172.703.36 1.578.726 2.625 1.101A45.253 45.253 0 0 1 98.993 63c1.28.625 2.374 1.36 3.28 2.203a8.383 8.383 0 0 1 2.11 2.906c.5 1.094.75 2.391.75 3.891 0 1.375-.227 2.617-.68 3.727a8.13 8.13 0 0 1-1.945 2.835c-.844.797-1.86 1.438-3.047 1.922-1.188.47-2.516.774-3.984.914v4.594H91.75v-4.594a15.584 15.584 0 0 1-3.867-.867 10.323 10.323 0 0 1-3.328-2.015c-.953-.875-1.72-1.977-2.297-3.305-.578-1.344-.867-2.953-.867-4.828h6.539c0 1.125.164 2.07.492 2.836.328.75.75 1.351 1.266 1.804.53.438 1.132.75 1.804.938.672.187 1.36.281 2.063.281 1.672 0 2.937-.39 3.797-1.172.859-.78 1.289-1.789 1.289-3.023z"
    fill="#fff"
  ></path>
</svg>
