<svg
  width="19"
  height="19"
  viewBox="0 0 128 128"
  fill="none"
  xmlns="http://www.w3.org/2000/svg"
>
  <path
    d="M23.378 22.342A32.755 32.755 0 0 0 7 50.709v27.693a32.755 32.755 0 0 0 16.378 28.367l23.975 13.843a32.758 32.758 0 0 0 32.754.001l23.982-13.844a32.756 32.756 0 0 0 16.38-28.369V50.71a32.755 32.755 0 0 0-16.38-28.368L80.107 8.498a32.755 32.755 0 0 0-32.754.002L23.378 22.342z"
    fill="#C93C2B"
  ></path>
  <path
    d="M83 48.553c-.395.003-.79.01-1.186.004-.04 0-.099-.079-.116-.132-.246-.742-.467-1.493-.731-2.23-.4-1.114-.877-2.196-1.555-3.17-1.306-1.88-3.072-3.055-5.306-3.503-1.497-.3-3.013-.39-4.534-.395-2.76-.01-5.52-.006-8.28-.007h-.193v22.463c.054.004.104.01.154.01 2.523 0 5.046.006 7.568-.006 1.152-.006 2.28-.172 3.357-.616 1.225-.506 2.044-1.412 2.562-2.627.446-1.045.718-2.138.912-3.253.07-.404.123-.811.192-1.216.008-.045.064-.118.099-.118.463-.008.927-.005 1.403-.005v19.35h-1.5c0-.11.002-.22 0-.33-.026-1.123-.099-2.243-.397-3.328-.614-2.237-2.035-3.63-4.3-4.11-.85-.179-1.713-.234-2.58-.234h-7.466v11.55H72.51v3.163H61.102c-.004.063-.01.11-.01.156.009 1.606.006 3.213.031 4.819a23.15 23.15 0 0 0 .265 3.09c.182 1.212.842 2.055 1.862 2.65 1.217.709 2.526 1.085 3.934 1.093.628.004 1.256 0 1.884 0h.189V93H45v-1.377c.612 0 1.224.011 1.836-.005a17.42 17.42 0 0 0 1.56-.096c.862-.101 1.683-.352 2.423-.823.68-.432 1.276-.953 1.583-1.732a6.54 6.54 0 0 0 .291-.96c.282-1.255.359-2.533.378-3.813.021-1.398.012-2.795.017-4.193v-.189h-7.883c-.068 0-.136-.003-.205-.005v-3.17c.047.004.094.013.14.013h7.788c.05 0 .1-.006.16-.01v-.258V47.25c0-1.355.01-2.71-.11-4.062-.073-.84-.178-1.675-.414-2.487-.165-.566-.384-1.102-.833-1.516-.94-.868-2.06-1.332-3.302-1.52-1.139-.172-2.285-.085-3.429-.096V36h37.652l.297 7.5c.011.286.034.572.051.858v4.195z"
    fill="#fff"
  ></path>
</svg>
