<svg
  width="19"
  height="19"
  viewBox="0 0 128 128"
  fill="none"
  xmlns="http://www.w3.org/2000/svg"
>
  <path
    d="M23.643 21.785A32.756 32.756 0 0 0 7.266 50.152v27.694a32.757 32.757 0 0 0 16.377 28.367l23.976 13.842a32.755 32.755 0 0 0 32.753.001l23.983-13.844a32.755 32.755 0 0 0 16.38-28.368v-27.69a32.755 32.755 0 0 0-16.38-28.368L80.372 7.942a32.755 32.755 0 0 0-32.753 0L23.643 21.786z"
    fill="#EFC62D"
  ></path>
  <path
    d="M47.523 70.313c-.109 1.718-.484 3.265-1.125 4.64-.625 1.375-1.468 2.547-2.53 3.516-1.063.969-2.329 1.719-3.798 2.25-1.468.515-3.093.773-4.875.773-2.015 0-3.804-.367-5.367-1.101a11.151 11.151 0 0 1-3.937-3.118c-1.063-1.343-1.875-2.953-2.438-4.828-.562-1.875-.844-3.937-.844-6.187v-4.594c0-2.266.297-4.336.891-6.21.594-1.876 1.438-3.485 2.531-4.829a11.299 11.299 0 0 1 3.961-3.117c1.563-.75 3.313-1.125 5.25-1.125 1.875 0 3.54.265 4.992.797 1.47.53 2.72 1.289 3.75 2.273 1.032.984 1.844 2.188 2.438 3.61.594 1.421.969 3.023 1.125 4.804h-6.563c-.062-1.015-.218-1.906-.468-2.672-.235-.765-.586-1.398-1.055-1.898-.453-.516-1.031-.899-1.734-1.149-.688-.265-1.516-.398-2.485-.398-1.015 0-1.898.219-2.648.656-.75.438-1.375 1.078-1.875 1.922-.485.844-.844 1.883-1.078 3.117-.235 1.22-.352 2.61-.352 4.172v4.64c0 3.36.469 5.845 1.406 7.454.953 1.61 2.453 2.414 4.5 2.414 1.72 0 3.078-.453 4.078-1.36 1-.921 1.555-2.406 1.664-4.453h6.586zM76.469 66.445c0 2.188-.29 4.203-.867 6.047-.579 1.844-1.415 3.43-2.508 4.758a11.542 11.542 0 0 1-4.008 3.117c-1.563.735-3.328 1.102-5.297 1.102-1.969 0-3.719-.367-5.25-1.102a11.047 11.047 0 0 1-3.867-3.117c-1.047-1.344-1.844-2.93-2.39-4.758-.548-1.844-.821-3.86-.821-6.047v-4.968c0-2.188.273-4.204.82-6.047.547-1.844 1.344-3.43 2.39-4.758a11 11 0 0 1 3.845-3.14c1.53-.75 3.28-1.126 5.25-1.126 1.984 0 3.757.375 5.32 1.125a11.424 11.424 0 0 1 4.008 3.14c1.094 1.329 1.93 2.915 2.508 4.759.578 1.843.867 3.86.867 6.047v4.968zm-6.68-5.015c0-1.39-.117-2.672-.352-3.844-.218-1.172-.57-2.18-1.054-3.023-.485-.844-1.11-1.5-1.875-1.97-.75-.484-1.664-.726-2.742-.726-1.063 0-1.953.242-2.672.727-.719.468-1.297 1.125-1.735 1.968-.437.844-.75 1.852-.937 3.024a24.395 24.395 0 0 0-.281 3.844v5.015c0 1.375.093 2.649.28 3.82.188 1.172.5 2.188.938 3.047.438.86 1.016 1.532 1.735 2.016.718.484 1.617.727 2.695.727 1.063 0 1.969-.243 2.719-.727.765-.484 1.383-1.148 1.851-1.992.485-.86.844-1.875 1.079-3.047.234-1.172.351-2.453.351-3.844V61.43zM88.492 68.484V81h-6.586V46.875h11.672c1.86 0 3.54.273 5.04.82 1.499.532 2.773 1.282 3.82 2.25a9.497 9.497 0 0 1 2.437 3.446c.578 1.343.867 2.836.867 4.476 0 1.531-.289 2.946-.867 4.242a9.65 9.65 0 0 1-2.437 3.375c-1.047.938-2.321 1.672-3.82 2.204-1.5.53-3.18.796-5.04.796h-5.086zm0-5.343h5.086c.938 0 1.75-.141 2.438-.422.687-.282 1.257-.664 1.71-1.149a4.512 4.512 0 0 0 1.032-1.664c.234-.64.351-1.304.351-1.992 0-.797-.117-1.539-.351-2.227a4.82 4.82 0 0 0-1.031-1.804 4.739 4.739 0 0 0-1.711-1.219c-.688-.297-1.5-.445-2.438-.445h-5.086V63.14z"
    fill="#fff"
  ></path>
</svg>
