<svg
  width="19"
  height="19"
  viewBox="0 0 128 128"
  fill="none"
  xmlns="http://www.w3.org/2000/svg"
>
  <path
    d="M23.378 22.342A32.755 32.755 0 0 0 7 50.709v27.693a32.755 32.755 0 0 0 16.378 28.367l23.975 13.843a32.758 32.758 0 0 0 32.754.001l23.982-13.844a32.756 32.756 0 0 0 16.38-28.369V50.71a32.755 32.755 0 0 0-16.38-28.368L80.107 8.498a32.755 32.755 0 0 0-32.754.002L23.378 22.342z"
    fill="#BF2A2C"
  ></path>
  <path
    d="M56.125 103.988h-3.033l4.112-11.664c-.831-.277-1.667-.525-2.479-.834-.807-.307-1.591-.675-2.403-1.023l-.588 1.658c-1.378 3.888-2.757 7.777-4.131 11.667-.051.145-.111.21-.28.208-.868-.01-1.736-.005-2.604-.005-.065 0-.13-.006-.22-.01l.083-.243c1.716-4.84 3.43-9.68 5.15-14.519.054-.15.044-.23-.097-.323-5.32-3.518-8.75-8.38-10.421-14.486-.579-2.112-.92-4.263-1.086-6.445a40.644 40.644 0 0 1-.032-6.01c.285-3.941 1.194-7.72 3.007-11.26 1.52-2.968 3.565-5.53 6.07-7.738a28.549 28.549 0 0 1 6.451-4.315 27.953 27.953 0 0 1 7.461-2.382c2.091-.362 4.2-.503 6.322-.452.335.008.67.04 1.017.06.027-.065.057-.132.081-.2 1.099-3.138 2.199-6.275 3.29-9.415.067-.194.148-.26.358-.257.83.014 1.66.006 2.491.006h.277l-3.54 10.129c1.76.234 3.445.679 5.14 1.17.178-.504.351-.99.522-1.479 1.123-3.2 2.246-6.4 3.362-9.602.06-.17.132-.225.314-.223.92.01 1.84.005 2.8.005l-4.223 12.077c.561.144 1.1.32 1.653.416a4.32 4.32 0 0 0 2.786-.427c.83-.431 1.306-1.151 1.57-2.025l.07-.233h1.768L87.9 54.61c-.08.005-.152.013-.224.013-.494 0-.988-.01-1.481.006-.188.005-.254-.057-.297-.233a24.255 24.255 0 0 0-1.972-5.358c-1.408-2.74-3.336-5.04-5.867-6.829l-.189-.131L61.52 88.68c.95.372 1.914.635 2.898.82 2.02.379 4.056.44 6.1.267a24.06 24.06 0 0 0 6.97-1.655c2.23-.894 4.294-2.08 6.224-3.5a35.553 35.553 0 0 0 3.666-3.107c.031-.03.068-.056.096-.08L89 82.952c-.223.298-.441.636-.704.934a28.915 28.915 0 0 1-5.728 4.968c-2.981 1.978-6.24 3.304-9.745 4.027-3.006.62-6.045.798-9.104.556-1.235-.098-2.463-.28-3.737-.43l-3.857 10.982zM67.43 39.116c-.75.056-1.451.094-2.15.162a17.801 17.801 0 0 0-5.217 1.301c-3.296 1.387-5.851 3.65-7.839 6.571-1.82 2.677-2.912 5.653-3.585 8.793-.493 2.3-.737 4.63-.822 6.98-.114 3.149.034 6.28.646 9.379.601 3.045 1.626 5.934 3.266 8.591.186.3.383.594.602.932 5.037-14.25 10.057-28.447 15.1-42.709zm-8.523 48.477l16.435-46.854a17.836 17.836 0 0 0-5.053-1.417c-.038.101-.07.184-.1.268l-12.78 36.304c-.968 2.751-1.934 5.503-2.907 8.252-.05.14-.036.227.078.325.259.224.503.467.761.692a18.964 18.964 0 0 0 3.566 2.43z"
    fill="#fff"
  ></path>
</svg>
