<svg
  width="19"
  height="19"
  viewBox="0 0 128 128"
  fill="none"
  xmlns="http://www.w3.org/2000/svg"
>
  <path
    d="M23.643 21.785A32.756 32.756 0 0 0 7.266 50.152v27.694a32.757 32.757 0 0 0 16.377 28.367l23.976 13.842a32.755 32.755 0 0 0 32.753.001l23.983-13.844a32.755 32.755 0 0 0 16.38-28.368v-27.69a32.755 32.755 0 0 0-16.38-28.368L80.372 7.942a32.755 32.755 0 0 0-32.753 0L23.643 21.786z"
    fill="#1F457A"
  ></path>
  <path
    d="M48.414 66.984l-3.61 3.961V81h-6.609V46.875h6.61v15.633l3.093-4.172 8.297-11.461h8.063L52.773 61.969 64.68 81h-7.828l-8.438-14.016zM78.531 76.266c.64 0 1.25-.094 1.828-.282a4.875 4.875 0 0 0 1.524-.796 3.508 3.508 0 0 0 1.008-1.243c.25-.484.359-1.023.328-1.617h6.14a7.483 7.483 0 0 1-.82 3.656 8.886 8.886 0 0 1-2.32 2.907c-.985.812-2.133 1.453-3.446 1.921-1.296.454-2.671.68-4.125.68-1.968 0-3.695-.328-5.18-.984-1.484-.672-2.726-1.586-3.726-2.742-.984-1.157-1.734-2.508-2.25-4.055-.5-1.563-.75-3.234-.75-5.016v-.703c0-1.781.25-3.445.75-4.992.5-1.563 1.25-2.922 2.25-4.078 1-1.156 2.235-2.07 3.703-2.742 1.485-.672 3.203-1.008 5.157-1.008 1.562 0 3.007.234 4.335.703 1.329.469 2.47 1.133 3.422 1.992a8.6 8.6 0 0 1 2.25 3.094c.532 1.203.782 2.555.75 4.055h-6.14a4.272 4.272 0 0 0-.281-1.782 4.006 4.006 0 0 0-.961-1.453 4.605 4.605 0 0 0-1.524-.96 4.962 4.962 0 0 0-1.945-.376c-1.031 0-1.883.211-2.555.633a4.786 4.786 0 0 0-1.617 1.688c-.39.703-.672 1.507-.844 2.414a16.522 16.522 0 0 0-.234 2.812v.703c0 .985.078 1.938.234 2.86.156.906.43 1.71.82 2.414a4.85 4.85 0 0 0 1.618 1.664c.687.422 1.554.633 2.601.633zm.188-28.5l3.445-2.953h5.555v.445l-6.938 5.93H76.68l-6.938-5.907v-.468h5.555l3.422 2.953z"
    fill="#fff"
  ></path>
</svg>
