<svg
  width="19"
  height="19"
  viewBox="0 0 128 128"
  fill="none"
  xmlns="http://www.w3.org/2000/svg"
>
  <path
    d="M23.643 21.785A32.756 32.756 0 0 0 7.266 50.152v27.694a32.757 32.757 0 0 0 16.377 28.367l23.976 13.842a32.755 32.755 0 0 0 32.753.001l23.983-13.844a32.755 32.755 0 0 0 16.38-28.368v-27.69a32.755 32.755 0 0 0-16.38-28.368L80.372 7.942a32.755 32.755 0 0 0-32.753 0L23.643 21.786z"
    fill="#B72936"
  ></path>
  <path
    d="M47.2 65.984l-3.61 3.961V80h-6.609V45.875h6.61v15.633l3.093-4.172 8.297-11.461h8.063L51.559 60.969 63.466 80h-7.828L47.2 65.984zM84.302 54.172c.984 0 1.89.07 2.718.21.844.126 1.524.266 2.04.423l-.962 6.492a20.806 20.806 0 0 0-2.648-.445c-.89-.11-1.742-.164-2.555-.164-1.828 0-3.297.351-4.406 1.054-1.094.703-1.914 1.711-2.46 3.024V80h-6.516V54.64h6.07l.305 4.15c1.03-1.438 2.265-2.563 3.703-3.376 1.437-.828 3.007-1.242 4.71-1.242zM87.105 76.227c0-.61.101-1.172.304-1.688.203-.531.5-.984.891-1.36.39-.39.867-.695 1.43-.913.562-.235 1.195-.352 1.898-.352.703 0 1.336.117 1.899.352a3.851 3.851 0 0 1 1.406.914c.39.375.687.828.89 1.36.22.515.329 1.077.329 1.687 0 .593-.11 1.148-.329 1.664a3.95 3.95 0 0 1-.89 1.359 4.014 4.014 0 0 1-1.406.89c-.563.22-1.196.329-1.899.329-.703 0-1.336-.11-1.898-.328a4.27 4.27 0 0 1-1.43-.891 3.95 3.95 0 0 1-.89-1.36 4.5 4.5 0 0 1-.305-1.663z"
    fill="#fff"
  ></path>
</svg>
