<svg
  width="19"
  height="19"
  viewBox="0 0 36 36"
  fill="none"
  xmlns="http://www.w3.org/2000/svg"
>
  <path
    d="M6.65 6.127a9.213 9.213 0 0 0-4.607 7.979v7.788a9.213 9.213 0 0 0 4.607 7.979l6.743 3.893a9.213 9.213 0 0 0 9.212 0l6.745-3.893a9.213 9.213 0 0 0 4.607-7.98v-7.787a9.212 9.212 0 0 0-4.607-7.978l-6.745-3.894a9.212 9.212 0 0 0-9.212 0L6.65 6.127z"
    fill="#2E5098"
  ></path>
  <path
    fill-rule="evenodd"
    clip-rule="evenodd"
    d="M21.337 21.482a3.506 3.506 0 0 1-1.795.502c-1.955 0-3.706-1.69-3.706-3.984 0-2.295 1.751-3.984 3.706-3.984a3.49 3.49 0 0 1 1.636.412l.887-1.936a5.604 5.604 0 0 0-5.688.377 6.014 6.014 0 0 0-1.99 2.274 6.347 6.347 0 0 0-.675 3.003 6.327 6.327 0 0 0 .812 2.966 5.975 5.975 0 0 0 2.091 2.172 5.633 5.633 0 0 0 3.04.824 5.626 5.626 0 0 0 2.659-.732l-.977-1.894z"
    fill="#fff"
  ></path>
  <path
    d="M12.624 16.382h7.29l-.538 1.163h-6.752v-1.163zM12.624 18.455h7.29l-.556 1.163h-6.734v-1.163z"
    fill="#fff"
  ></path>
</svg>
