<svg
  width="19"
  height="19"
  viewBox="0 0 36 36"
  fill="none"
  xmlns="http://www.w3.org/2000/svg"
>
  <path
    d="M6.575 6.284a9.212 9.212 0 0 0-4.606 7.978v7.789a9.212 9.212 0 0 0 4.606 7.978l6.743 3.893a9.212 9.212 0 0 0 9.212 0l6.745-3.893a9.212 9.212 0 0 0 4.607-7.979v-7.788a9.212 9.212 0 0 0-4.607-7.978L22.53 2.39a9.212 9.212 0 0 0-9.212 0L6.575 6.284z"
    fill="#5E6072"
  ></path>
  <path
    d="M21.386 20.743l-.337.484a1.85 1.85 0 0 1-1.276.777c-.46.06-.945-.063-1.334-.339a3.722 3.722 0 0 0-.975-.571 4.059 4.059 0 0 0 .55-2.196h2.475v-1.887h-3.002c-.479-.615-.608-1.062-.608-1.466 0-1.017.828-1.845 1.845-1.845a1.84 1.84 0 0 1 1.759 1.283l1.798-.573a3.714 3.714 0 0 0-1.333-1.863 3.704 3.704 0 0 0-2.224-.735 3.737 3.737 0 0 0-3.434 5.199h-1.644v1.887h2.48a2.225 2.225 0 0 1-1.307 2.152 3.745 3.745 0 0 0-1.482.985l-.4.434 1.39 1.277.4-.434c.165-.18.37-.328.594-.43l.18-.07a1.845 1.845 0 0 1 1.76.33l.047.035a3.83 3.83 0 0 0 2.237.73 3.741 3.741 0 0 0 3.054-1.602l.337-.485-1.55-1.077z"
    fill="#fff"
  ></path>
</svg>
