<svg
  width="19"
  height="19"
  viewBox="0 0 128 128"
  fill="none"
  xmlns="http://www.w3.org/2000/svg"
>
  <path
    d="M23.643 21.785A32.756 32.756 0 0 0 7.266 50.152v27.694a32.757 32.757 0 0 0 16.377 28.367l23.976 13.842a32.755 32.755 0 0 0 32.753.001l23.983-13.844a32.755 32.755 0 0 0 16.38-28.368v-27.69a32.755 32.755 0 0 0-16.38-28.368L80.372 7.942a32.755 32.755 0 0 0-32.753 0L23.643 21.786z"
    fill="#F00"
  ></path>
  <path
    d="M61.19 34v8.256c1.989-.237 3.948-.27 5.942.01v-.637c0-1.102-.005-2.206.006-3.308.001-.132.05-.3.14-.39 1.24-1.25 2.49-2.487 3.74-3.727.049-.05.108-.088.216-.172v.425c.003 2.779.01 5.556.003 8.334 0 .253.066.357.318.439 4.525 1.477 8.308 4.05 11.328 7.73 2.432 2.962 4.028 6.337 4.889 10.064.097.421.163.85.225 1.279.014.097-.02.238-.085.304-1.179 1.19-2.366 2.372-3.552 3.555-.014.012-.038.014-.099.037-.078-5.512-2.055-10.235-5.903-14.155-2.505-2.553-5.444-4.02-7.124-4.566v.418c0 4.654-.003 9.31.006 13.963 0 .269-.081.452-.27.637-1.19 1.165-2.366 2.342-3.548 3.513-.073.074-.151.142-.283.266V46.404c-1.574-.363-5.178-.26-5.95-.012v.396c-.005 5.026-.01 10.052-.008 15.077a.78.78 0 0 1-.253.611c-1.187 1.167-2.363 2.345-3.543 3.519-.074.073-.151.143-.279.262V47.413c-.55.235-1.049.43-1.532.658-2.466 1.161-4.591 2.782-6.419 4.798-1.1 1.214-2.006 2.568-2.779 4.01a19.023 19.023 0 0 0-2.009 5.88 21.216 21.216 0 0 0-.227 5.19c.156 1.977.61 3.878 1.343 5.714a19.803 19.803 0 0 0 3.114 5.247 20.432 20.432 0 0 0 5.59 4.743 19.118 19.118 0 0 0 6.796 2.408c.929.14 1.873.238 2.81.242 6.7.021 13.402.013 20.103.014h.399c-.106.115-.165.185-.229.248-1.19 1.195-2.376 2.392-3.576 3.576a.728.728 0 0 1-.463.193c-13.233.01-26.465.008-39.698.008-.082 0-.164-.008-.292-.015.077-.09.123-.154.179-.21 1.206-1.208 2.41-2.419 3.627-3.615a.732.732 0 0 1 .47-.177c1.982-.012 3.965-.008 5.948-.008h.333l.021-.066-.802-.592a23.95 23.95 0 0 1-5.937-6.3c-1.775-2.732-2.925-5.706-3.517-8.901-.34-1.842-.416-3.707-.32-5.57a23.6 23.6 0 0 1 1.464-7.083 23.981 23.981 0 0 1 3.878-6.768c1.871-2.304 4.098-4.187 6.652-5.69a22.664 22.664 0 0 1 4.83-2.138c.223-.068.235-.192.234-.374a596.569 596.569 0 0 1-.011-4.517c0-.123.037-.283.119-.365 1.26-1.272 2.532-2.535 3.8-3.8.038-.034.08-.065.185-.153z"
    fill="#fff"
  ></path>
</svg>
