<svg
  width="19"
  height="19"
  viewBox="0 0 128 128"
  fill="none"
  xmlns="http://www.w3.org/2000/svg"
  class="iconindex___1AjOo"
>
  <path
    d="M23.643 21.785A32.756 32.756 0 0 0 7.266 50.152v27.694a32.757 32.757 0 0 0 16.377 28.367l23.976 13.842a32.755 32.755 0 0 0 32.753.001l23.983-13.844a32.755 32.755 0 0 0 16.38-28.368v-27.69a32.755 32.755 0 0 0-16.38-28.368L80.372 7.942a32.755 32.755 0 0 0-32.753 0L23.643 21.786z"
    fill="#DE2910"
  ></path>
  <path
    d="M46.352 81h-6.516V66.21H30.18V81h-6.54V46.875h6.54v13.992h9.656V46.875h6.516V81zM62.828 66.984l-3.61 3.961V81H52.61V46.875h6.61v15.633l3.093-4.172 8.297-11.461h8.063L67.188 61.969 79.094 81h-7.828l-8.438-14.016zM98.64 72.047c0-.656-.1-1.234-.304-1.734a3.709 3.709 0 0 0-.938-1.407c-.421-.422-.984-.804-1.687-1.148-.688-.36-1.523-.711-2.508-1.055a43.918 43.918 0 0 1-4.312-1.781c-1.297-.625-2.407-1.352-3.329-2.18a8.865 8.865 0 0 1-2.109-2.883c-.5-1.109-.75-2.422-.75-3.937 0-1.328.227-2.54.68-3.633a8.484 8.484 0 0 1 1.922-2.883c.828-.812 1.828-1.468 3-1.968s2.476-.82 3.914-.961v-5.04h3.75v5.086c1.406.188 2.672.57 3.797 1.149a9.067 9.067 0 0 1 2.859 2.273c.797.922 1.406 2.016 1.828 3.282.438 1.25.656 2.656.656 4.218h-6.515c0-1.89-.43-3.32-1.29-4.289-.859-.984-2.023-1.476-3.492-1.476-.796 0-1.492.11-2.085.328-.579.203-1.055.5-1.43.89-.375.375-.656.82-.844 1.336a5.307 5.307 0 0 0-.258 1.688c0 .61.086 1.156.258 1.64.188.47.492.907.914 1.313.438.406 1.008.797 1.711 1.172.703.36 1.578.726 2.625 1.101A45.253 45.253 0 0 1 98.993 63c1.28.625 2.374 1.36 3.28 2.203a8.383 8.383 0 0 1 2.11 2.906c.5 1.094.75 2.391.75 3.891 0 1.375-.227 2.617-.68 3.727a8.13 8.13 0 0 1-1.945 2.835c-.844.797-1.86 1.438-3.047 1.922-1.188.47-2.516.774-3.984.914v4.594H91.75v-4.594a15.584 15.584 0 0 1-3.867-.867 10.323 10.323 0 0 1-3.328-2.015c-.953-.875-1.72-1.977-2.297-3.305-.578-1.344-.867-2.953-.867-4.828h6.539c0 1.125.164 2.07.492 2.836.328.75.75 1.351 1.266 1.804.53.438 1.132.75 1.804.938.672.187 1.36.281 2.063.281 1.672 0 2.937-.39 3.797-1.172.859-.78 1.289-1.789 1.289-3.023z"
    fill="#fff"
  ></path>
</svg>
