<svg
  width="19"
  height="19"
  viewBox="0 0 128 128"
  fill="none"
  xmlns="http://www.w3.org/2000/svg"
>
  <path
    d="M23.643 21.785A32.756 32.756 0 0 0 7.266 50.152v27.694a32.757 32.757 0 0 0 16.377 28.367l23.976 13.842a32.755 32.755 0 0 0 32.753.001l23.983-13.844a32.755 32.755 0 0 0 16.38-28.368v-27.69a32.755 32.755 0 0 0-16.38-28.368L80.372 7.942a32.755 32.755 0 0 0-32.753 0L23.643 21.786z"
    fill="#26933E"
  ></path>
  <path
    fill-rule="evenodd"
    clip-rule="evenodd"
    d="M46.945 60.967v-12.87c.164-.011.315-.025.46-.037.22-.019.423-.036.628-.041 1.208-.001 2.415-.003 3.623-.006 3.755-.007 7.51-.014 11.266.026 1.16.012 1.654-.313 1.547-1.517-.084-.936-.09-1.89 0-2.825.122-1.303-.355-1.705-1.675-1.694-6.951.063-13.9.072-20.847-.002-1.5-.018-1.956.408-1.947 1.922.045 7.482.04 14.964.034 22.446-.002 2.495-.004 4.989-.004 7.483 0 1.022.002 2.043.005 3.064.006 2.653.012 5.304-.023 7.956-.015 1.15.373 1.633 1.553 1.565a29.223 29.223 0 0 1 3.72.003c1.267.09 1.607-.43 1.595-1.64-.04-3.986-.034-7.972-.028-11.958.002-1.424.004-2.847.004-4.272v-1.69h1.842c1.167 0 2.334-.002 3.5-.004 3.151-.006 6.302-.012 9.454.025 1.177.015 1.627-.396 1.532-1.559a13.768 13.768 0 0 1 .003-2.527c.137-1.344-.325-1.83-1.738-1.803-3.237.062-6.475.05-9.714.036-1.08-.004-2.16-.008-3.24-.01-.352 0-.704-.021-1.052-.043-.167-.01-.333-.02-.498-.028zm32.03 1.816v-3.038c1.458 0 2.785 0 4.108-.003 3.905 0 3.905-.003 3.917-3.804v-.122c.006-1.198-.313-1.687-1.592-1.63-1.482.067-2.968.053-4.486.039-.643-.006-1.292-.013-1.95-.013 0-.627-.001-1.235-.003-1.83-.005-1.446-.01-2.814.016-4.182.018-.965-.239-1.481-1.344-1.418a38.875 38.875 0 0 1-4.168 0c-1.076-.057-1.374.387-1.344 1.398.042 1.388.034 2.778.025 4.19-.003.585-.007 1.174-.007 1.768l-.34.03c-.225.022-.392.037-.557.041-3.897.11-3.897.11-3.904 3.909v.148c-.004 1.243.49 1.55 1.588 1.494a33.89 33.89 0 0 1 2.166-.02c.34.004.688.008 1.047.008 0 1.208-.003 2.4-.007 3.582a525.527 525.527 0 0 0 .03 9.049c.028 2.439.055 4.885.299 7.304.319 3.174 1.854 5.752 5.05 6.7 1.749.519 3.722.632 5.555.468 3.62-.32 3.619-.455 3.583-4.081v-.032c-.02-2.021-.02-2.021-2.077-1.729-4.11.587-5.49-.563-5.571-4.727-.038-1.937-.036-3.873-.034-5.81 0-.644.002-1.29 0-1.934v-5.755z"
    fill="#fff"
  ></path>
</svg>
