<svg
  width="19"
  height="19"
  viewBox="0 0 128 128"
  fill="none"
  xmlns="http://www.w3.org/2000/svg"
>
  <path
    d="M23.643 21.785A32.756 32.756 0 0 0 7.266 50.152v27.694a32.757 32.757 0 0 0 16.377 28.367l23.976 13.842a32.755 32.755 0 0 0 32.753.001l23.983-13.844a32.755 32.755 0 0 0 16.38-28.368v-27.69a32.755 32.755 0 0 0-16.38-28.368L80.372 7.942a32.755 32.755 0 0 0-32.753 0L23.643 21.786z"
    fill="#C81916"
  ></path>
  <path
    fill-rule="evenodd"
    clip-rule="evenodd"
    d="M39.081 39.005c-.488 0-.846.174-1.081.593 0 11.731 0 23.462.009 35.185.27.454.689.576 1.195.567.909-.013 1.813-.012 2.72-.01l.908.001c1.047-.009 1.265-.227 1.265-1.282V60.4h.61c.519 0 1.037.002 1.555.003 1.296.004 2.592.007 3.888-.011.436-.01.602.156.741.54 1.226 3.418 2.461 6.837 3.696 10.251l1.171 3.242c.288.794.445.907 1.291.907h3.83c.165 0 .33 0 .496-.034.515-.096.776-.48.663-.986a3.978 3.978 0 0 0-.164-.524l-.02-.052c-.722-1.923-1.441-3.847-2.161-5.77-1.079-2.882-2.158-5.765-3.246-8.647-.13-.35-.096-.567.192-.82 1.047-.907 1.963-1.928 2.678-3.123 1.308-2.189 1.648-4.587 1.5-7.082-.227-3.855-2.625-6.995-6.271-8.277-1.91-.663-3.882-.968-5.888-.995a388.503 388.503 0 0 0-6.154-.019c-1.14.003-2.282.005-3.422.002zm6.42 16.356c-.458-.005-.92-.01-1.387-.01V44.072c.387 0 .77-.005 1.153-.01.886-.01 1.761-.022 2.633.027.976.052 1.98.148 2.93.401 2.442.646 3.812 2.33 3.908 4.65.113 2.773-1.108 4.77-3.585 5.669-.768.27-1.588.47-2.399.514-1.071.062-2.152.05-3.253.037zm43.96 11.73c.053-.358.106-.717.165-1.074v-2.52l-.017-.074a6.258 6.258 0 0 1-.079-.362c-.072-.356-.134-.713-.197-1.07-.144-.82-.287-1.636-.536-2.42-.846-2.686-2.355-4.918-4.727-6.515-2.085-1.404-4.387-1.936-6.882-1.788-2.468.14-4.64.977-6.445 2.704l-.003.003c-.287.27-.574.539-.93.887l.001-.744c.002-.46.004-.896-.002-1.332 0-.811-.174-.986-.968-.986h-3.079c-.985 0-1.125.14-1.125 1.143-.008 9.394-.008 18.787-.008 28.18v7.005c0 .663.209.872.872.872h3.427c.855 0 1.021-.166 1.021-1.038V76.275c.076.066.13.107.169.137a.767.767 0 0 1 .075.063c2.312 2.19 5.12 2.922 8.181 2.6 5.365-.568 9.447-4.275 10.659-9.551.188-.8.308-1.617.429-2.433zm-6.725-8.165c1.386 1.788 2.102 3.951 2.102 5.992-.035 2.704-.698 4.902-2.277 6.76-2.957 3.498-7.658 3.454-10.606-.07-3.044-3.637-2.922-9.62.28-13.127 3.008-3.305 7.762-3.096 10.5.445z"
    fill="#fff"
  ></path>
</svg>
