<svg
  width="19"
  height="19"
  viewBox="0 0 128 128"
  fill="none"
  xmlns="http://www.w3.org/2000/svg"
>
  <path
    d="M23.643 21.785A32.756 32.756 0 0 0 7.266 50.152v27.694a32.757 32.757 0 0 0 16.377 28.367l23.976 13.842a32.755 32.755 0 0 0 32.753.001l23.983-13.844a32.755 32.755 0 0 0 16.38-28.368v-27.69a32.755 32.755 0 0 0-16.38-28.368L80.372 7.942a32.755 32.755 0 0 0-32.753 0L23.643 21.786z"
    fill="#0038B8"
  ></path>
  <path
    fill-rule="evenodd"
    clip-rule="evenodd"
    d="M40.215 40H40c0 16.022 0 31.984.002 47.957h6.854V46.913l.182-.01c.1-.006.188-.01.275-.01.754-.001 1.508-.004 2.261-.007a299.218 299.218 0 0 1 6.216.025c2.416.033 4.835.066 7.243.227 2.535.168 3.783 1.422 4.127 3.929.12.883.126 1.786.13 2.681v.093c.033 5.357.057 10.716.081 16.075a40804.123 40804.123 0 0 0 .023 5.388v.221h6.818l.009-.11c.005-.069.01-.126.01-.182a6275.25 6275.25 0 0 1-.01-5.134 2247.281 2247.281 0 0 0-.055-14.495c-.013-1.894-.026-3.793-.471-5.66-.686-2.878-1.977-5.375-4.416-7.148-2.341-1.702-4.972-2.569-7.876-2.596-4.337-.04-8.675-.082-13.012-.124L40.59 40c-.123-.001-.245-.001-.376 0zm20.312 41.154V53.772c-2.313 0-4.57 0-6.81.002v34.191l.08.018c.043.01.076.017.108.017 1.844-.019 3.687-.036 5.531-.052 4.917-.045 9.835-.09 14.75-.174 1.887-.033 3.741-.401 5.514-1.121 4.74-1.926 7.148-5.6 7.726-10.522.207-1.768.205-3.564.203-5.355 0-.432-.001-.863.001-1.294.04-6.789.065-13.577.09-20.366a25597.961 25597.961 0 0 1 .03-8.41h-6.878v.715l-.01 7.18c-.01 7.461-.021 14.923-.047 22.385-.006 1.85-.028 3.709-.205 5.548-.252 2.6-1.875 4.117-4.434 4.336a33.5 33.5 0 0 1-2.25.12c-3.406.063-6.812.115-10.22.162-.708.01-1.417.008-2.143.005l-1.036-.002z"
    fill="#fff"
  ></path>
</svg>
