<svg
  width="19"
  height="19"
  viewBox="0 0 128 128"
  fill="none"
  xmlns="http://www.w3.org/2000/svg"
>
  <path
    d="M23.643 21.785A32.756 32.756 0 0 0 7.266 50.152v27.694a32.757 32.757 0 0 0 16.377 28.367l23.976 13.842a32.755 32.755 0 0 0 32.753.001l23.983-13.844a32.755 32.755 0 0 0 16.38-28.368v-27.69a32.755 32.755 0 0 0-16.38-28.368L80.372 7.942a32.755 32.755 0 0 0-32.753 0L23.643 21.786z"
    fill="#FF9934"
  ></path>
  <path
    d="M74.434 41.696c.15.29.21.44.297.573 1.096 1.655 1.717 3.491 2.018 5.436.065.426.224.545.624.54 1.24-.016 2.48-.023 3.719.005 1.424.033 2.536.999 2.851 2.422.26 1.174-.386 2.538-1.546 3.1a3.617 3.617 0 0 1-1.412.339c-1.348.045-2.698.028-4.047.01-.383-.006-.597.104-.723.484-1.304 3.928-3.996 6.566-7.709 8.244-.139.062-.27.147-.442.242.097.106.134.175.19.202 2.734 1.366 4.445 3.647 5.44 6.433.737 2.067 1.23 4.223 1.776 6.354.876 3.42 1.572 6.889 2.842 10.196.162.421.383.826.625 1.208.969 1.537.695 3.49-.663 4.594-1.412 1.146-3.345 1.042-4.66-.28-1.372-1.38-2.139-3.11-2.732-4.924-1.286-3.932-2.204-7.96-3.114-11.992-.43-1.903-.998-3.765-2.067-5.435-1.356-2.118-3.345-3.28-5.784-3.472-2.61-.206-5.242-.162-7.864-.218-.857-.017-1.715.005-2.571-.007-1.663-.023-2.896-1.248-2.889-2.855.007-1.592 1.264-2.838 2.917-2.846 3.118-.014 6.235.001 9.353-.01 2.411-.007 4.706-.49 6.781-1.778 1.38-.857 2.44-2.011 3.137-3.486.075-.16.127-.33.223-.587-.313-.022-.554-.056-.796-.056-7.036-.004-14.074-.002-21.111-.005-1.46 0-2.556-.774-2.958-2.059-.572-1.833.707-3.688 2.638-3.817.291-.02.583-.01.875-.01 6.947 0 13.893 0 20.839-.003.248 0 .498-.025.803-.042-.174-.99-.578-1.815-1.105-2.577-1.197-1.729-2.913-2.712-4.884-3.297-1.583-.469-3.205-.642-4.858-.633-3.81.022-7.62.011-11.431.003-1.386-.003-2.453-.698-2.84-1.813-.657-1.889.595-3.73 2.634-3.87.127-.009.255-.008.383-.008L80.776 36c1.126 0 2.086.355 2.733 1.317 1.21 1.806.01 4.268-2.168 4.35-2.02.076-4.046.025-6.07.03l-.837-.001z"
    fill="#fff"
  ></path>
</svg>
