<svg
  width="19"
  height="19"
  viewBox="0 0 128 128"
  fill="none"
  xmlns="http://www.w3.org/2000/svg"
>
  <path
    d="M23.643 21.785A32.756 32.756 0 0 0 7.266 50.152v27.694a32.757 32.757 0 0 0 16.377 28.367l23.976 13.842a32.755 32.755 0 0 0 32.753.001l23.983-13.844a32.755 32.755 0 0 0 16.38-28.368v-27.69a32.755 32.755 0 0 0-16.38-28.368L80.372 7.942a32.755 32.755 0 0 0-32.753 0L23.643 21.786z"
    fill="#CC2729"
  ></path>
  <path
    d="M64.024 62.55c1.074-2 2.098-3.9 3.118-5.804 3.014-5.625 6.031-11.25 9.033-16.883.303-.567.653-.883 1.353-.86 1.492.05 2.989.01 4.484.017.253.002.506.048.988.097-3.55 6.579-7.023 13.015-10.564 19.574.373.032.674.08.976.08 2.345.006 4.69.022 7.035-.01.648-.008.895.196.856.853a20.146 20.146 0 0 0 0 2.373c.042.687-.197.905-.893.898-3.106-.033-6.213.01-9.319-.033-.703-.01-1.106.206-1.417.82-.63 1.24-1.37 2.43-1.947 3.694-.308.675-.367 1.465-.578 2.369h1.303c3.956 0 7.913.02 11.87-.018.788-.007 1.039.243.983 1.004a16.506 16.506 0 0 0-.002 2.285c.046.712-.255.895-.923.891-3.957-.023-7.914.012-11.868-.03-.867-.008-1.16.194-1.149 1.112.05 4.336.023 8.674.021 13.011 0 1.16-.005 1.164-1.187 1.166-1.495.003-2.991-.039-4.484.016-.804.03-1.059-.225-1.052-1.043.037-4.337.018-8.675.018-13.011v-1.161c-.41-.026-.776-.069-1.141-.069-3.957-.005-7.914-.024-11.87.014-.82.01-1.078-.24-1.026-1.046.066-.986.016-1.98.016-3.1h14.183c-.21-.918-.26-1.711-.57-2.385-.593-1.292-1.343-2.51-2.005-3.773-.281-.537-.627-.758-1.283-.748-3.076.048-6.155.021-9.233.021h-1.025v-4.11h8.831C52.004 52.155 48.543 45.721 45 39.13c.5-.054.776-.109 1.053-.11 1.465-.01 2.932.028 4.397-.018.656-.02 1.013.257 1.303.798 3.56 6.65 7.129 13.295 10.702 19.938.484.904.995 1.789 1.569 2.812z"
    fill="#fff"
  ></path>
</svg>
