<svg
  width="19"
  height="19"
  viewBox="0 0 128 128"
  fill="none"
  xmlns="http://www.w3.org/2000/svg"
>
  <path
    d="M23.643 21.785A32.756 32.756 0 0 0 7.266 50.152v27.694a32.757 32.757 0 0 0 16.377 28.367l23.976 13.842a32.755 32.755 0 0 0 32.753.001l23.983-13.844a32.755 32.755 0 0 0 16.38-28.368v-27.69a32.755 32.755 0 0 0-16.38-28.368L80.372 7.942a32.755 32.755 0 0 0-32.753 0L23.643 21.786z"
    fill="#1541BB"
  ></path>
  <path
    fill-rule="evenodd"
    clip-rule="evenodd"
    d="M76.1 60l.568-3h-6.181l.692 3H76.1zm7.504 0l.666-3H92v-5h-6.621l1.797-8.102h-8.03L77.615 52h-8.28l-1.87-8.102h-6.82L58.762 52H50.45l-1.544-8.102h-8.03L42.675 52H36v5h7.784l.665 3H36v5h9.559l3.993 18h8.11l4.38-18h3.97l4.38 18h8.11l3.993-18H92v-5h-8.396zm-8.45 5h-2.822l1.55 6.72L75.155 65zm-10.359-5l-.73-3h-.076l-.73 3h1.536zm-7.89 0l.697-3h-6.199l.572 3h4.93zm-1.16 5h-2.817l1.27 6.667L55.745 65z"
    fill="#fff"
  ></path>
</svg>
