<svg
  width="19"
  height="19"
  viewBox="0 0 128 128"
  fill="none"
  xmlns="http://www.w3.org/2000/svg"
>
  <path
    d="M21.269 19.303A34.682 34.682 0 0 0 3.928 49.34V78.66c0 12.39 6.61 23.84 17.341 30.036l25.386 14.656a34.683 34.683 0 0 0 34.68.002l25.393-14.659a34.682 34.682 0 0 0 17.344-30.037V49.341a34.683 34.683 0 0 0-17.344-30.037L81.335 4.645a34.682 34.682 0 0 0-34.68.002L21.269 19.303z"
    fill="#4BAEC8"
  ></path>
  <path
    d="M82.737 39H45.263v6.362h37.474V39zM82.737 48.051v6.362H67.659V89h-7.318V54.413H45.263V48.05h37.474z"
    fill="#fff"
  ></path>
</svg>
