<svg
  width="19"
  height="19"
  viewBox="0 0 128 128"
  fill="none"
  xmlns="http://www.w3.org/2000/svg"
>
  <path
    d="M23.643 21.785A32.756 32.756 0 0 0 7.266 50.152v27.694a32.757 32.757 0 0 0 16.377 28.367l23.976 13.842a32.755 32.755 0 0 0 32.753.001l23.983-13.844a32.755 32.755 0 0 0 16.38-28.368v-27.69a32.755 32.755 0 0 0-16.38-28.368L80.372 7.942a32.755 32.755 0 0 0-32.753 0L23.643 21.786z"
    fill="#008301"
  ></path>
  <path
    fill-rule="evenodd"
    clip-rule="evenodd"
    d="M42.273 91.549v.001l-.13 1.451c.14-.11.277-.212.41-.311.27-.203.524-.393.757-.607 1.26-1.173 1.824-2.727 2.255-4.33 1.065-3.953 1.265-8.013 1.383-12.075.029-.992.012-1.987-.005-2.981-.024-1.417-.049-2.833.06-4.239.121-1.586.378-3.162.635-4.739.147-.902.294-1.804.416-2.71.061-.46.217-.566.64-.579 2.268-.067 4.536-.153 6.802-.24l.785-.03a14.85 14.85 0 0 0 4.397-.834c2.083-.736 4.142-3.62 4.058-5.826-.066-1.702-.986-3.052-2.165-4.163-3.623-3.413-8.038-5.48-12.638-7.182-.734-.273-1.534-.192-2.297.293-1.219.774-1.897 1.905-2.415 3.173-.763 1.865-1.107 3.83-1.339 5.822-.13 1.116.198 1.947.92 2.13.713.181 1.457-.305 1.812-1.354.352-1.037.608-2.11.843-3.181.226-1.034.956-1.666 2.031-1.715 1.614-.072 3.071.383 4.47 1.159 1.634.906 3.217 1.851 4.387 3.37 1.022 1.328.767 2.235-.848 2.757-1.802.583-3.632.451-5.46.32-.408-.029-.816-.058-1.223-.08a57.019 57.019 0 0 1-2.142-.167c-1.023-.092-2.045-.185-3.068-.198-1.81-.024-2.676 1.057-3.086 2.608-.495 1.877-.3 3.762-.105 5.643.04.395.081.79.116 1.183.072.83.169 1.658.266 2.486.172 1.477.345 2.952.379 4.43.056 2.494.004 4.99-.048 7.486a407.934 407.934 0 0 0-.058 3.128 4.649 4.649 0 0 1-.01.278l-.105 1.373c-.145 1.904-.29 3.807-.442 5.711-.073.904-.154 1.808-.238 2.739zM82.95 44.912l-1.056 1.177c.413.384.814.75 1.204 1.105.825.752 1.6 1.458 2.338 2.202l.025.026c1.466 1.481 2.937 2.967 4.273 4.563 1.112 1.329 2.093 2.78 3.013 4.252.656 1.05.449 1.839-.392 2.74-1.437 1.543-3.305 2.254-5.27 2.805-1.14.32-2.236.456-3.28-.28-.467-.327-.937-.649-1.408-.97a69.727 69.727 0 0 1-2.474-1.744l-.054-.041c-.567-.425-1.222-.916-1.451-1.52-.31-.822-.502-1.687-.694-2.554-.108-.486-.215-.973-.344-1.453-.075-.279-.296-.644-.534-.728-.47-.166-.618.267-.696.635-.09.426-.17.853-.252 1.28-.085.446-.17.892-.264 1.336-.66 3.107.19 5.738 2.555 7.839 2 1.776 4.365 2.915 6.905 3.695.554.17 1.102.117 1.617-.272.382-.29.84-.489 1.286-.682l.046-.02.603-.26c2.246-.966 4.49-1.931 6.166-3.833 1.826-2.072 2.61-4.44 1.968-7.187-.559-2.395-1.661-4.561-3.053-6.547-1.37-1.952-2.873-3.82-4.418-5.64-.653-.767-1.44-1.424-2.224-2.078-.175-.146-.35-.292-.524-.44-.415-.35-.914-.41-1.34.065-.75.834-1.498 1.668-2.253 2.51l-.018.019zM68.111 68.219c-2.36.002-4.063-1.92-4.022-3.898.055-2.601 1.668-4.145 4.064-4.098 2.343.046 3.859 1.514 3.912 3.966.047 2.22-1.627 3.966-3.954 4.03zM37.818 64.32c.07-2.154-1.629-3.92-3.833-3.987-2.137-.064-3.937 1.662-3.984 3.823-.047 2.112 1.64 3.881 3.778 3.963 2.142.082 3.97-1.637 4.039-3.799z"
    fill="#fff"
  ></path>
</svg>
