<svg
  width="19"
  height="19"
  viewBox="0 0 128 128"
  fill="none"
  xmlns="http://www.w3.org/2000/svg"
>
  <path
    d="M23.643 21.785A32.756 32.756 0 0 0 7.266 50.152v27.694a32.757 32.757 0 0 0 16.377 28.367l23.976 13.842a32.755 32.755 0 0 0 32.753.001l23.983-13.844a32.755 32.755 0 0 0 16.38-28.368v-27.69a32.755 32.755 0 0 0-16.38-28.368L80.372 7.942a32.755 32.755 0 0 0-32.753 0L23.643 21.786z"
    fill="#37AC50"
  ></path>
  <path
    d="M31.063 51.828l2.29 9.081 2.607-9.08h5.794V76H37.47v-7.155l.199-11.306-3.171 10.492h-2.308l-2.839-10.044.2 10.858V76h-4.283V51.828h5.794zM60.63 65.408h-9.928v6.823h11.605V76H46.02V51.828h16.237v3.802H50.702v6.093h9.928v3.685zM74.36 60.494l4.3-8.666h5.478L77.33 63.814 84.304 76h-5.446l-4.432-8.799L70.01 76h-5.512l6.973-12.185-6.79-11.987h5.445l4.233 8.666zM98.747 69.658c0-.465-.072-.874-.216-1.228a2.626 2.626 0 0 0-.664-.996c-.299-.3-.697-.57-1.195-.814a13.448 13.448 0 0 0-1.776-.747 31.1 31.1 0 0 1-3.055-1.262c-.919-.442-1.705-.957-2.358-1.544a6.28 6.28 0 0 1-1.494-2.042c-.354-.785-.531-1.715-.531-2.789 0-.94.16-1.798.481-2.573a6.007 6.007 0 0 1 1.362-2.042 6.813 6.813 0 0 1 2.125-1.394c.83-.355 1.754-.581 2.772-.681v-3.57h2.657v3.603c.996.133 1.892.404 2.689.814a6.42 6.42 0 0 1 2.025 1.61c.565.653.996 1.428 1.295 2.324.31.886.465 1.882.465 2.988h-4.615c0-1.339-.305-2.351-.913-3.038-.609-.697-1.433-1.046-2.474-1.046-.564 0-1.057.078-1.477.233-.41.144-.747.354-1.013.63a2.555 2.555 0 0 0-.598.947 3.758 3.758 0 0 0-.182 1.195c0 .432.06.82.182 1.162.133.332.349.642.648.93.31.288.714.565 1.212.83.498.255 1.117.515 1.859.78 1.118.421 2.13.858 3.038 1.312.908.443 1.682.963 2.324 1.56a5.93 5.93 0 0 1 1.494 2.06c.355.774.532 1.692.532 2.755 0 .974-.161 1.854-.482 2.64a5.758 5.758 0 0 1-1.378 2.008c-.597.565-1.317 1.019-2.158 1.362-.841.332-1.782.548-2.822.647v3.254h-2.64v-3.254a11.042 11.042 0 0 1-2.739-.614 7.314 7.314 0 0 1-2.358-1.428c-.675-.62-1.217-1.4-1.626-2.34-.41-.952-.615-2.092-.615-3.42h4.632c0 .796.116 1.466.349 2.008.232.531.531.958.896 1.279.377.31.803.53 1.279.664.475.133.963.199 1.46.199 1.185 0 2.081-.277 2.69-.83.609-.554.913-1.267.913-2.142z"
    fill="#fff"
  ></path>
</svg>
