<svg
  width="19"
  height="19"
  viewBox="0 0 128 128"
  fill="none"
  xmlns="http://www.w3.org/2000/svg"
>
  <path
    d="M23.643 21.785A32.756 32.756 0 0 0 7.266 50.152v27.694a32.757 32.757 0 0 0 16.377 28.367l23.976 13.842a32.755 32.755 0 0 0 32.753.001l23.983-13.844a32.755 32.755 0 0 0 16.38-28.368v-27.69a32.755 32.755 0 0 0-16.38-28.368L80.372 7.942a32.755 32.755 0 0 0-32.753 0L23.643 21.786z"
    fill="#0D4EAF"
  ></path>
  <path
    d="M49.82 68.25h-4.992V81h-6.586V46.875H49.68c1.89 0 3.601.227 5.133.68 1.53.437 2.835 1.086 3.914 1.945a8.434 8.434 0 0 1 2.507 3.21c.594 1.282.891 2.767.891 4.454 0 1.219-.148 2.32-.445 3.305a8.837 8.837 0 0 1-1.242 2.625 8.811 8.811 0 0 1-1.946 2.015 12.587 12.587 0 0 1-2.531 1.5l7.336 14.086V81h-7.055L49.82 68.25zm-4.992-5.344h4.875c1.86 0 3.29-.468 4.29-1.406 1.015-.953 1.523-2.25 1.523-3.89 0-1.704-.493-3.024-1.477-3.962-.984-.953-2.437-1.43-4.36-1.43h-4.85v10.688zM75.156 46.875l3.235 12.82 3.68-12.82h8.179V81h-6.047V70.898l.281-15.96-4.476 14.812H76.75l-4.008-14.18.281 15.328V81h-6.046V46.875h8.18z"
    fill="#fff"
  ></path>
</svg>
