<svg
  width="19"
  height="19"
  viewBox="0 0 128 128"
  fill="none"
  xmlns="http://www.w3.org/2000/svg"
>
  <path
    d="M23.643 21.785A32.756 32.756 0 0 0 7.266 50.152v27.694a32.757 32.757 0 0 0 16.377 28.367l23.976 13.842a32.755 32.755 0 0 0 32.753.001l23.983-13.844a32.755 32.755 0 0 0 16.38-28.368v-27.69a32.755 32.755 0 0 0-16.38-28.368L80.372 7.942a32.755 32.755 0 0 0-32.753 0L23.643 21.786z"
    fill="#1CA63B"
  ></path>
  <path
    d="M63.63 81h-6.142L41.734 55.924V81h-6.141V45.656h6.141L57.537 70.83V45.656h6.093V81zM87.176 71.776c0-1.376-.437-2.509-1.31-3.399-.875-.906-2.331-1.715-4.37-2.427-2.04-.728-3.625-1.4-4.758-2.015-3.77-2.023-5.656-5.017-5.656-8.982 0-2.686.817-4.895 2.452-6.627 1.634-1.731 3.851-2.759 6.651-3.083v-5.291h3.884v5.34c2.816.405 4.992 1.602 6.53 3.593 1.537 1.974 2.306 4.547 2.306 7.719H87.03c0-2.04-.46-3.641-1.383-4.806-.907-1.182-2.145-1.772-3.714-1.772-1.554 0-2.768.42-3.641 1.262-.874.841-1.311 2.047-1.311 3.617 0 1.408.429 2.54 1.286 3.398.874.842 2.347 1.643 4.418 2.403 2.072.761 3.698 1.465 4.88 2.112 1.18.648 2.176 1.392 2.985 2.234a8.689 8.689 0 0 1 1.87 2.864c.436 1.084.655 2.355.655 3.811 0 2.735-.842 4.952-2.525 6.651-1.667 1.7-3.997 2.703-6.99 3.01v4.734H79.7v-4.71c-3.205-.355-5.673-1.504-7.404-3.446-1.716-1.942-2.573-4.515-2.573-7.72h5.898c0 2.04.51 3.617 1.53 4.734 1.035 1.117 2.492 1.675 4.37 1.675 1.844 0 3.244-.445 4.199-1.335.97-.89 1.456-2.072 1.456-3.544z"
    fill="#fff"
  ></path>
</svg>
