<svg
  width="19"
  height="19"
  viewBox="0 0 128 128"
  fill="none"
  xmlns="http://www.w3.org/2000/svg"
>
  <path
    d="M23.643 21.785A32.756 32.756 0 0 0 7.266 50.152v27.694a32.757 32.757 0 0 0 16.377 28.367l23.976 13.842a32.755 32.755 0 0 0 32.753.001l23.983-13.844a32.755 32.755 0 0 0 16.38-28.368v-27.69a32.755 32.755 0 0 0-16.38-28.368L80.372 7.942a32.755 32.755 0 0 0-32.753 0L23.643 21.786z"
    fill="#398556"
  ></path>
  <path
    d="M50.912 88V73.18h-3.48v-4.44h3.48v-4.32h-3.48v-4.44h3.48V45.16h9.42l4.68 14.82h5.46V45.16h6.66v14.82h3.42v4.44h-3.42v4.32h3.42v4.44h-3.42V88h-9.48l-4.8-14.82h-5.28V88h-6.66zm6.42-28.02h1.68l-1.74-5.76h-.24l.3 5.76zm.24 8.76h3.96l-1.32-4.32h-2.76l.12 4.32zm10.26 0h2.76l-.12-4.32h-4.02l1.38 4.32zm2.82 9.9h.3l-.24-5.46h-1.62l1.56 5.46z"
    fill="#fff"
  ></path>
</svg>
