<svg
  width="19"
  height="19"
  viewBox="0 0 128 128"
  fill="none"
  xmlns="http://www.w3.org/2000/svg"
>
  <path
    d="M23.643 21.785A32.756 32.756 0 0 0 7.266 50.152v27.694a32.757 32.757 0 0 0 16.377 28.367l23.976 13.842a32.755 32.755 0 0 0 32.753.001l23.983-13.844a32.755 32.755 0 0 0 16.38-28.368v-27.69a32.755 32.755 0 0 0-16.38-28.368L80.372 7.942a32.755 32.755 0 0 0-32.753 0L23.643 21.786z"
    fill="#0E3C83"
  ></path>
  <path
    d="M50.438 79h-6.446L31.445 58.418V79H25V47.719h6.445l12.569 20.625V47.719h6.423V79zM62.898 73.822h15.77V79H54.842v-3.781l15.469-22.28H54.863v-5.22h23.461v3.695L62.898 73.822zM96.93 70.772c0-1.175-.33-2.106-.989-2.794-.644-.701-1.747-1.346-3.308-1.933-1.561-.587-2.908-1.167-4.04-1.74-1.13-.588-2.105-1.254-2.921-1.998a8.363 8.363 0 0 1-1.89-2.664c-.445-1.017-.667-2.228-.667-3.631 0-2.42.774-4.405 2.32-5.952 1.547-1.546 3.603-2.449 6.167-2.707v-4.597h3.437v4.662c2.535.358 4.519 1.418 5.951 3.18 1.433 1.747 2.149 4.017 2.149 6.81h-6.21c0-1.718-.357-3-1.073-3.846-.702-.859-1.648-1.289-2.837-1.289-1.174 0-2.084.337-2.728 1.01-.644.66-.967 1.576-.967 2.75 0 1.089.315 1.962.945 2.621.63.66 1.798 1.332 3.502 2.02 1.72.687 3.13 1.339 4.233 1.955 1.103.602 2.034 1.289 2.793 2.062a7.842 7.842 0 0 1 1.74 2.621c.401.975.602 2.113.602 3.416 0 2.435-.759 4.412-2.278 5.93-1.518 1.518-3.609 2.414-6.273 2.686v4.275h-3.416v-4.254c-2.936-.315-5.214-1.353-6.832-3.115-1.604-1.776-2.406-4.132-2.406-7.068h6.209c0 1.704.4 3.015 1.203 3.931.816.903 1.983 1.354 3.502 1.354 1.26 0 2.255-.33 2.986-.989.73-.673 1.096-1.575 1.096-2.706z"
    fill="#fff"
  ></path>
</svg>
