<svg
  width="19"
  height="19"
  viewBox="0 0 128 128"
  fill="none"
  xmlns="http://www.w3.org/2000/svg"
>
  <path
    d="M23.643 21.785A32.756 32.756 0 0 0 7.266 50.152v27.694a32.757 32.757 0 0 0 16.377 28.367l23.976 13.842a32.755 32.755 0 0 0 32.753.001l23.983-13.844a32.755 32.755 0 0 0 16.38-28.368v-27.69a32.755 32.755 0 0 0-16.38-28.368L80.372 7.942a32.755 32.755 0 0 0-32.753 0L23.643 21.786z"
    fill="#C82F2E"
  ></path>
  <path
    d="M57.401 76.867c0-.761-.136-1.474-.41-2.139-.254-.663-.703-1.279-1.347-1.845-.625-.586-1.456-1.114-2.49-1.582-1.016-.489-2.286-.938-3.81-1.348a36.687 36.687 0 0 1-5.331-1.904c-1.68-.762-3.164-1.68-4.453-2.754a12.956 12.956 0 0 1-3.106-3.75c-.762-1.426-1.142-3.067-1.142-4.922 0-1.797.38-3.428 1.142-4.892a11.204 11.204 0 0 1 3.164-3.75c1.348-1.036 2.94-1.827 4.776-2.374 1.836-.566 3.828-.85 5.976-.85 2.227 0 4.258.323 6.094.968 1.855.644 3.447 1.552 4.775 2.724a12.198 12.198 0 0 1 3.106 4.131c.742 1.602 1.113 3.36 1.113 5.273h-8.027a8.115 8.115 0 0 0-.528-2.636 5.221 5.221 0 0 0-1.347-2.051c-.586-.586-1.328-1.035-2.227-1.348-.879-.332-1.914-.498-3.105-.498-1.094 0-2.07.137-2.93.41-.84.254-1.553.626-2.139 1.114a4.734 4.734 0 0 0-1.347 1.699 5.036 5.036 0 0 0-.44 2.11c0 .8.195 1.523.586 2.167.41.645.996 1.23 1.758 1.758.762.508 1.68.977 2.754 1.406 1.094.43 2.324.83 3.691 1.201 1.953.567 3.75 1.26 5.39 2.08 1.642.82 3.048 1.797 4.22 2.93a11.78 11.78 0 0 1 2.754 3.838c.664 1.426.996 3.018.996 4.776 0 1.875-.381 3.544-1.143 5.01a10.836 10.836 0 0 1-3.105 3.69c-1.328.997-2.91 1.759-4.746 2.286-1.836.508-3.838.762-6.006.762-1.348 0-2.696-.127-4.043-.381a18.424 18.424 0 0 1-3.838-1.114 17.039 17.039 0 0 1-3.399-1.904 13.211 13.211 0 0 1-2.754-2.666 12.657 12.657 0 0 1-1.816-3.457c-.43-1.289-.645-2.715-.645-4.277h8.087c.038 1.289.263 2.392.673 3.31.41.918.977 1.67 1.7 2.256.742.586 1.62 1.016 2.636 1.29 1.035.273 2.168.41 3.399.41 1.093 0 2.06-.127 2.9-.381.86-.254 1.582-.606 2.168-1.055a4.62 4.62 0 0 0 1.348-1.611 4.77 4.77 0 0 0 .468-2.11zm17.182 14.795h-7.587l15.966-46.318h7.588L74.584 91.662z"
    fill="#fff"
  ></path>
</svg>
