<svg
  width="19"
  height="19"
  viewBox="0 0 128 128"
  fill="none"
  xmlns="http://www.w3.org/2000/svg"
>
  <path
    d="M23.643 21.785A32.756 32.756 0 0 0 7.266 50.152v27.694a32.757 32.757 0 0 0 16.377 28.367l23.976 13.842a32.755 32.755 0 0 0 32.753.001l23.983-13.844a32.755 32.755 0 0 0 16.38-28.368v-27.69a32.755 32.755 0 0 0-16.38-28.368L80.372 7.942a32.755 32.755 0 0 0-32.753 0L23.643 21.786z"
    fill="#1439A1"
  ></path>
  <path
    d="M65.784 45.16c4.04 0 7.2.86 9.48 2.58 2.28 1.68 3.78 4.06 4.5 7.14h3.18v4.14h-2.64c.04.24.06.48.06.72v.6c0 .4-.02.8-.06 1.2 0 .36-.02.7-.06 1.02h2.7v4.14h-3.54c-.92 2.8-2.66 5.14-5.22 7.02-2.52 1.84-6.14 2.76-10.86 2.76h-1.14V88h-8.94V66.7h-3.42v-4.14h3.42v-3.54h-3.42v-4.14h3.42v-9.72h12.54zm-.42 7.2h-3.18v2.52h8.22c-.92-1.68-2.6-2.52-5.04-2.52zm6 6.66h-9.18v3.54h9.18c.04-.32.06-.62.06-.9v-1.02-.78c0-.28-.02-.56-.06-.84zm-1.32 7.68h-7.86v2.58h.96c1.64 0 3.04-.2 4.2-.6 1.16-.4 2.06-1.06 2.7-1.98z"
    fill="#fff"
  ></path>
</svg>
