<svg
  width="19"
  height="19"
  viewBox="0 0 36 36"
  fill="none"
  xmlns="http://www.w3.org/2000/svg"
>
  <path
    d="M6.65 6.127a9.213 9.213 0 0 0-4.607 7.979v7.788a9.213 9.213 0 0 0 4.607 7.979l6.743 3.893a9.213 9.213 0 0 0 9.212 0l6.745-3.893a9.213 9.213 0 0 0 4.607-7.98v-7.787a9.212 9.212 0 0 0-4.607-7.978l-6.745-3.894a9.212 9.212 0 0 0-9.212 0L6.65 6.127z"
    fill="#D05248"
  ></path>
  <path
    d="M20.646 17.354v-5.862h2.228v3.949c.427-.363 1.292-1.102 1.334-1.159.042-.056.486.55.702.86l-2.036 1.79v6.248h-2.228v-4.3l-1.334 1.106-.685-.843 2.019-1.79zM18.101 14.88h-6.704v2.245h3.808l-3.808 3.264v2.773h6.704v-2.211h-3.896l3.896-3.352v-2.72z"
    fill="#fff"
  ></path>
</svg>
