<svg
  width="19"
  height="19"
  viewBox="0 0 128 128"
  fill="none"
  xmlns="http://www.w3.org/2000/svg"
>
  <path
    d="M23.643 21.785A32.756 32.756 0 0 0 7.266 50.152v27.694a32.757 32.757 0 0 0 16.377 28.367l23.976 13.842a32.755 32.755 0 0 0 32.753.001l23.983-13.844a32.755 32.755 0 0 0 16.38-28.368v-27.69a32.755 32.755 0 0 0-16.38-28.368L80.372 7.942a32.755 32.755 0 0 0-32.753 0L23.643 21.786z"
    fill="#82263E"
  ></path>
  <path
    d="M47.852 67.477c-.016 2.093-.383 4.07-1.102 5.93-.703 1.843-1.742 3.421-3.117 4.734l5.648 5.109-4.242 3.773-6.492-6c-.547.141-1.11.25-1.688.329-.562.078-1.148.117-1.757.117-1.97 0-3.72-.375-5.25-1.125a11.909 11.909 0 0 1-3.891-3.07c-1.047-1.297-1.844-2.79-2.39-4.477a17.15 17.15 0 0 1-.821-5.32V61.57c0-2.203.273-4.226.82-6.07.547-1.86 1.344-3.46 2.39-4.805a11.159 11.159 0 0 1 3.892-3.14c1.53-.766 3.28-1.149 5.25-1.149 1.984 0 3.765.383 5.343 1.149a11.424 11.424 0 0 1 4.008 3.14c1.094 1.344 1.93 2.946 2.508 4.805.594 1.844.89 3.867.89 6.07v5.907zm-6.68-5.954c0-1.406-.117-2.695-.352-3.867-.218-1.187-.57-2.21-1.054-3.07-.485-.86-1.11-1.523-1.875-1.992-.766-.485-1.696-.727-2.79-.727-1.078 0-1.984.242-2.718.727-.719.484-1.297 1.156-1.735 2.015-.437.844-.75 1.86-.937 3.047a24.56 24.56 0 0 0-.281 3.867v5.954c0 1.062.093 2.109.28 3.14.188 1.016.5 1.93.938 2.742a5.633 5.633 0 0 0 1.735 1.946c.734.5 1.64.75 2.719.75 1.093 0 2.023-.243 2.789-.727a5.956 5.956 0 0 0 1.875-1.969 9.022 9.022 0 0 0 1.054-2.742c.235-1.031.352-2.078.352-3.14v-5.954zm28.266 12.352H59.194L57.18 81h-6.938l11.18-34.125h5.976L78.368 81H71.43l-1.993-7.125zm-8.626-5.602h7.079l-3.493-12.562-3.585 12.562zm32.25-.023H88.07V81h-6.586V46.875h11.438c1.89 0 3.601.227 5.133.68 1.53.437 2.836 1.086 3.914 1.945a8.449 8.449 0 0 1 2.508 3.21c.593 1.282.89 2.767.89 4.454 0 1.219-.148 2.32-.445 3.305a8.827 8.827 0 0 1-1.242 2.625 8.82 8.82 0 0 1-1.946 2.015 12.572 12.572 0 0 1-2.53 1.5l7.335 14.086V81h-7.055l-6.421-12.75zm-4.992-5.344h4.875c1.86 0 3.29-.468 4.29-1.406 1.015-.953 1.523-2.25 1.523-3.89 0-1.704-.492-3.024-1.477-3.962-.984-.953-2.437-1.43-4.36-1.43h-4.85v10.688z"
    fill="#fff"
  ></path>
</svg>
