<svg
  width="19"
  height="19"
  viewBox="0 0 36 36"
  fill="none"
  xmlns="http://www.w3.org/2000/svg"
>
  <path
    d="M6.65 6.127a9.213 9.213 0 0 0-4.607 7.979v7.788a9.213 9.213 0 0 0 4.607 7.979l6.743 3.893a9.213 9.213 0 0 0 9.212 0l6.745-3.893a9.213 9.213 0 0 0 4.607-7.98v-7.787a9.212 9.212 0 0 0-4.607-7.978l-6.745-3.894a9.212 9.212 0 0 0-9.212 0L6.65 6.127z"
    fill="#5B8BEF"
  ></path>
  <path
    fill-rule="evenodd"
    clip-rule="evenodd"
    d="M15.017 11.89h4.406a3.84 3.84 0 0 1 0 7.68h-2.072v.951h3.148v1.163h-3.148v2.425h-2.334v-2.425h-1.749V20.52h1.749v-.951h-1.749v-1.144h1.749V11.89zm3.86 1.859h-1.518v4.068h1.517a2.034 2.034 0 0 0 0-4.068z"
    fill="#fff"
  ></path>
</svg>
