<svg
  width="19"
  height="19"
  viewBox="0 0 128 128"
  fill="none"
  xmlns="http://www.w3.org/2000/svg"
>
  <path
    d="M23.643 21.785A32.756 32.756 0 0 0 7.266 50.152v27.694a32.757 32.757 0 0 0 16.377 28.367l23.976 13.842a32.755 32.755 0 0 0 32.753.001l23.983-13.844a32.755 32.755 0 0 0 16.38-28.368v-27.69a32.755 32.755 0 0 0-16.38-28.368L80.372 7.942a32.755 32.755 0 0 0-32.753 0L23.643 21.786z"
    fill="#2B69A2"
  ></path>
  <path
    d="M48.016 70.523l-2.953 2.743V81h-6.516V45h6.516v20.578l1.968-2.25 7.008-7.687h7.828l-9.562 10.57L63.203 81h-7.992l-7.195-10.477zm37.5-15.351c.984 0 1.89.07 2.718.21.844.126 1.524.266 2.04.423l-.962 6.492a20.809 20.809 0 0 0-2.648-.445c-.89-.11-1.742-.164-2.555-.164-1.828 0-3.296.351-4.406 1.054-1.094.703-1.914 1.711-2.46 3.024V81h-6.516V55.64h6.07l.305 4.15c1.03-1.438 2.265-2.563 3.703-3.376 1.437-.828 3.007-1.242 4.71-1.242z"
    fill="#fff"
  ></path>
</svg>
