<svg
  width="19"
  height="19"
  viewBox="0 0 128 128"
  fill="none"
  xmlns="http://www.w3.org/2000/svg"
>
  <path
    d="M23.643 21.785A32.756 32.756 0 0 0 7.266 50.152v27.694a32.757 32.757 0 0 0 16.377 28.367l23.976 13.842a32.755 32.755 0 0 0 32.753.001l23.983-13.844a32.755 32.755 0 0 0 16.38-28.368v-27.69a32.755 32.755 0 0 0-16.38-28.368L80.372 7.942a32.755 32.755 0 0 0-32.753 0L23.643 21.786z"
    fill="#DB3F41"
  ></path>
  <path
    d="M55.96 74.094c0-.61-.108-1.18-.327-1.711-.203-.531-.563-1.024-1.078-1.477-.5-.469-1.164-.89-1.992-1.265-.813-.391-1.829-.75-3.047-1.079a29.365 29.365 0 0 1-4.266-1.523c-1.344-.61-2.531-1.344-3.563-2.203a10.362 10.362 0 0 1-2.484-3c-.61-1.14-.914-2.453-.914-3.938 0-1.437.305-2.742.914-3.914a8.963 8.963 0 0 1 2.531-3c1.078-.828 2.352-1.46 3.82-1.898 1.47-.453 3.063-.68 4.782-.68 1.781 0 3.406.258 4.875.774 1.484.515 2.758 1.242 3.82 2.18a9.754 9.754 0 0 1 2.485 3.304c.593 1.281.89 2.688.89 4.219h-6.422a6.495 6.495 0 0 0-.422-2.11 4.177 4.177 0 0 0-1.078-1.64c-.468-.469-1.062-.828-1.78-1.078-.704-.266-1.532-.399-2.485-.399-.875 0-1.657.11-2.344.328-.672.203-1.242.5-1.71.891a3.787 3.787 0 0 0-1.08 1.36 4.03 4.03 0 0 0-.35 1.687c0 .64.156 1.219.468 1.734.328.516.797.985 1.406 1.407.61.406 1.344.78 2.203 1.124.876.344 1.86.665 2.954.961 1.562.454 3 1.008 4.312 1.664 1.313.657 2.438 1.438 3.375 2.344a9.424 9.424 0 0 1 2.203 3.07c.532 1.141.797 2.415.797 3.82 0 1.5-.305 2.837-.914 4.009a8.669 8.669 0 0 1-2.484 2.953c-1.063.797-2.328 1.406-3.797 1.828-1.469.406-3.07.61-4.805.61-1.078 0-2.156-.102-3.234-.305a14.739 14.739 0 0 1-3.07-.891 13.63 13.63 0 0 1-2.72-1.523 10.572 10.572 0 0 1-2.202-2.133 10.13 10.13 0 0 1-1.454-2.766c-.343-1.031-.515-2.172-.515-3.422h6.469c.03 1.031.21 1.914.539 2.649a4.8 4.8 0 0 0 1.359 1.804c.594.47 1.297.813 2.11 1.032.828.218 1.734.328 2.718.328.875 0 1.649-.102 2.32-.305.688-.203 1.266-.484 1.735-.844.469-.36.828-.789 1.078-1.289.25-.515.375-1.078.375-1.687zm28.267-.047c0-.656-.102-1.234-.305-1.734a3.709 3.709 0 0 0-.938-1.407c-.421-.422-.984-.804-1.687-1.148-.688-.36-1.524-.711-2.508-1.055a43.897 43.897 0 0 1-4.312-1.781c-1.297-.625-2.407-1.352-3.329-2.18a8.866 8.866 0 0 1-2.109-2.883c-.5-1.109-.75-2.422-.75-3.937 0-1.328.227-2.54.68-3.633a8.484 8.484 0 0 1 1.922-2.883c.828-.812 1.828-1.468 3-1.968 1.171-.5 2.476-.82 3.914-.961v-5.04h3.75v5.086c1.406.188 2.672.57 3.797 1.149a9.073 9.073 0 0 1 2.859 2.273c.797.922 1.406 2.016 1.828 3.282.438 1.25.656 2.656.656 4.218H84.18c0-1.89-.43-3.32-1.29-4.289-.859-.984-2.023-1.476-3.492-1.476-.796 0-1.492.11-2.085.328-.579.203-1.055.5-1.43.89-.375.375-.656.82-.844 1.336a5.307 5.307 0 0 0-.258 1.688c0 .61.086 1.156.258 1.64.188.47.492.907.914 1.313.438.406 1.008.797 1.711 1.172.703.36 1.578.726 2.625 1.101A45.24 45.24 0 0 1 84.58 65c1.28.625 2.374 1.36 3.28 2.203a8.376 8.376 0 0 1 2.11 2.906c.5 1.094.75 2.391.75 3.891 0 1.375-.227 2.617-.68 3.727a8.138 8.138 0 0 1-1.945 2.835c-.844.797-1.86 1.438-3.047 1.922-1.188.47-2.516.774-3.984.914v4.594h-3.727v-4.594a15.583 15.583 0 0 1-3.867-.867 10.324 10.324 0 0 1-3.328-2.015c-.954-.875-1.72-1.977-2.297-3.305-.578-1.344-.867-2.953-.867-4.828h6.539c0 1.125.164 2.07.492 2.836.328.75.75 1.351 1.265 1.804.532.438 1.133.75 1.805.938.672.187 1.36.281 2.063.281 1.671 0 2.937-.39 3.796-1.172.86-.78 1.29-1.789 1.29-3.023z"
    fill="#fff"
  ></path>
</svg>
