<svg
  width="19"
  height="19"
  viewBox="0 0 36 36"
  fill="none"
  xmlns="http://www.w3.org/2000/svg"
>
  <path
    d="M6.65 6.127a9.213 9.213 0 0 0-4.607 7.979v7.788a9.213 9.213 0 0 0 4.607 7.979l6.743 3.893a9.213 9.213 0 0 0 9.212 0l6.745-3.893a9.213 9.213 0 0 0 4.607-7.98v-7.787a9.212 9.212 0 0 0-4.607-7.978l-6.745-3.894a9.212 9.212 0 0 0-9.212 0L6.65 6.127z"
    fill="#A63629"
  ></path>
  <path
    d="M17.628 11.758h-2.264v12.356c2.21.401 4.34-.14 5.677-1.635 1.366-1.527 1.437-3.557 1.473-4.653h-2.073s.043.917-.19 1.708c-.373 1.26-1.344 2.308-2.623 2.457V11.758z"
    fill="#fff"
  ></path>
  <path
    d="M13.486 15.334l6.777-2.467.394 1.08-6.778 2.467-.393-1.08zM13.486 17.8l6.777-2.466.394 1.08-6.778 2.467-.393-1.08z"
    fill="#fff"
  ></path>
</svg>
