<svg
  width="19"
  height="19"
  viewBox="0 0 36 36"
  fill="none"
  xmlns="http://www.w3.org/2000/svg"
>
  <path
    d="M6.65 6.127a9.213 9.213 0 0 0-4.607 7.979v7.788a9.213 9.213 0 0 0 4.607 7.979l6.743 3.893a9.213 9.213 0 0 0 9.212 0l6.745-3.893a9.213 9.213 0 0 0 4.607-7.98v-7.787a9.212 9.212 0 0 0-4.607-7.978l-6.745-3.894a9.212 9.212 0 0 0-9.212 0L6.65 6.127z"
    fill="#5071B5"
  ></path>
  <path
    fill-rule="evenodd"
    clip-rule="evenodd"
    d="M13.946 14.543h2.037c0-.443.359-.802.802-.802h2.2a1.032 1.032 0 0 1 .549 1.908l-1.43.895h-4.792v1.059h3.102l-1.05.657a3.041 3.041 0 0 0-.153.103h-1.899v1.058h.978a3.02 3.02 0 0 0 2.678 4.423h2.201a2.885 2.885 0 0 0 2.885-2.886h-2.036a.818.818 0 0 1-.819.819h-2.13a1.086 1.086 0 0 1-.577-2.006l.56-.35h5.636v-1.058H18.74l1.214-.76h2.733v-1.059H21.36a3 3 0 0 0-2.308-4.919h-2.189a2.918 2.918 0 0 0-2.918 2.918z"
    fill="#fff"
  ></path>
</svg>
