<svg
  width="19"
  height="19"
  viewBox="0 0 36 36"
  fill="none"
  xmlns="http://www.w3.org/2000/svg"
>
  <path
    d="M6.65 6.127a9.213 9.213 0 0 0-4.607 7.979v7.788a9.213 9.213 0 0 0 4.607 7.979l6.743 3.893a9.213 9.213 0 0 0 9.212 0l6.745-3.893a9.213 9.213 0 0 0 4.607-7.98v-7.787a9.212 9.212 0 0 0-4.607-7.978l-6.745-3.894a9.212 9.212 0 0 0-9.212 0L6.65 6.127z"
    fill="#4CAF50"
  ></path>
  <path
    fill-rule="evenodd"
    clip-rule="evenodd"
    d="M22.424 15.944H20.35c0-.725-.588-1.312-1.313-1.312h-2.474a.912.912 0 0 0-.207 1.8l3.657.849a3.115 3.115 0 0 1-.705 6.15h-.27V25h-2.075v-1.57h-.032a3.354 3.354 0 0 1-3.355-3.354h2.074c0 .716.58 1.296 1.297 1.296h2.334a1.069 1.069 0 0 0 .248-2.108l-3.687-.882a2.953 2.953 0 0 1 .687-5.824h2.508a3.387 3.387 0 0 1 3.387 3.386z"
    fill="#fff"
  ></path>
  <path d="M19.037 11v1.558h-2.074V11h2.074z" fill="#fff"></path>
</svg>
