<svg
  width="19"
  height="19"
  viewBox="0 0 128 128"
  fill="none"
  xmlns="http://www.w3.org/2000/svg"
>
  <path
    d="M23.643 21.785A32.756 32.756 0 0 0 7.266 50.152v27.694a32.757 32.757 0 0 0 16.377 28.367l23.976 13.842a32.755 32.755 0 0 0 32.753.001l23.983-13.844a32.755 32.755 0 0 0 16.38-28.368v-27.69a32.755 32.755 0 0 0-16.38-28.368L80.372 7.942a32.755 32.755 0 0 0-32.753 0L23.643 21.786z"
    fill="#1439A1"
  ></path>
  <path
    d="M55.398 74.047c0-.656-.101-1.234-.304-1.734a3.709 3.709 0 0 0-.938-1.407c-.422-.422-.984-.804-1.687-1.148-.688-.36-1.524-.711-2.508-1.055a43.918 43.918 0 0 1-4.313-1.781c-1.296-.625-2.406-1.352-3.328-2.18a8.867 8.867 0 0 1-2.11-2.883c-.5-1.109-.75-2.422-.75-3.937 0-1.328.227-2.54.68-3.633a8.485 8.485 0 0 1 1.922-2.883c.829-.812 1.829-1.468 3-1.968 1.172-.5 2.477-.82 3.915-.961v-5.04h3.75v5.086c1.406.188 2.671.57 3.796 1.149a9.073 9.073 0 0 1 2.86 2.273c.797.922 1.406 2.016 1.828 3.282.437 1.25.656 2.656.656 4.218h-6.515c0-1.89-.43-3.32-1.29-4.289-.859-.984-2.023-1.476-3.492-1.476-.797 0-1.492.11-2.086.328-.578.203-1.054.5-1.43.89-.374.375-.656.82-.843 1.336a5.31 5.31 0 0 0-.258 1.688c0 .61.086 1.156.258 1.64.187.47.492.907.914 1.313.438.406 1.008.797 1.71 1.172.704.36 1.58.726 2.626 1.101A45.23 45.23 0 0 1 55.75 65c1.281.625 2.375 1.36 3.281 2.203a8.375 8.375 0 0 1 2.11 2.906c.5 1.094.75 2.391.75 3.891 0 1.375-.227 2.617-.68 3.727a8.136 8.136 0 0 1-1.945 2.835c-.844.797-1.86 1.438-3.047 1.922-1.188.47-2.516.774-3.985.914v4.594h-3.726v-4.594a15.584 15.584 0 0 1-3.867-.867 10.323 10.323 0 0 1-3.328-2.015c-.954-.875-1.72-1.977-2.297-3.305-.578-1.344-.868-2.953-.868-4.828h6.54c0 1.125.164 2.07.492 2.836.328.75.75 1.351 1.265 1.804.532.438 1.133.75 1.805.938.672.187 1.36.281 2.063.281 1.671 0 2.937-.39 3.796-1.172.86-.78 1.29-1.789 1.29-3.023zm34.407-25.172l.023 22.617c0 1.906-.266 3.602-.797 5.086-.515 1.484-1.273 2.742-2.273 3.774-.985 1.015-2.195 1.789-3.633 2.32-1.422.531-3.047.797-4.875.797-1.719 0-3.273-.266-4.664-.797a9.755 9.755 0 0 1-3.54-2.32c-.984-1.016-1.75-2.266-2.296-3.75-.531-1.5-.797-3.204-.797-5.11l.024-22.617h6.585l.024 22.617c.016 2.203.414 3.867 1.195 4.992.797 1.125 1.953 1.688 3.469 1.688 1.61 0 2.836-.563 3.68-1.688.86-1.125 1.297-2.789 1.312-4.992l.024-22.617h6.539z"
    fill="#fff"
  ></path>
</svg>
