<svg
  width="19"
  height="19"
  viewBox="0 0 128 128"
  fill="none"
  xmlns="http://www.w3.org/2000/svg"
>
  <path
    d="M23.643 21.785A32.756 32.756 0 0 0 7.266 50.152v27.694a32.757 32.757 0 0 0 16.377 28.367l23.976 13.842a32.755 32.755 0 0 0 32.753.001l23.983-13.844a32.755 32.755 0 0 0 16.38-28.368v-27.69a32.755 32.755 0 0 0-16.38-28.368L80.372 7.942a32.755 32.755 0 0 0-32.753 0L23.643 21.786z"
    fill="#4197B2"
  ></path>
  <path
    fill-rule="evenodd"
    clip-rule="evenodd"
    d="M80.75 43.864C67.242 33.61 53.346 36.55 47.932 45.092c-2.717 4.285-2.962 9.778.47 14.444 1.47 1.998 3.525 3.727 6.152 5.134L33.327 85.607h5.046L58.054 66.23c2.225.817 4.742 1.457 7.548 1.901L48.416 85.052l.005.005-.509.5c.834.944 2.918 2.107 2.918 2.107 13.343 7.553 26.782 3.405 32.535-4.29 2.916-3.9 4.03-9.127 1.136-13.809-1.749-2.83-4.704-5.014-8.721-6.504l19.587-19.359h-4.955L71.913 61.916a42.422 42.422 0 0 0-4.02-.718 40.646 40.646 0 0 1-4-.72l11.68-11.499.013.01 5.044-4.973.12-.152zm-8.304 3.158c-9.216-4.964-16.209-1.605-18.442 1.919-1.271 2.005-1.336 4.262.19 6.335.99 1.347 2.808 2.817 5.82 4.008l12.432-12.262zm-2.511 21.816L56.24 82.372c9.702 4.514 18.169.974 21.366-3.303 1.661-2.222 1.713-4.213.779-5.725-.92-1.487-3.296-3.385-8.451-4.506z"
    fill="#fff"
  ></path>
</svg>
