<svg
  width="19"
  height="19"
  viewBox="0 0 128 128"
  fill="none"
  xmlns="http://www.w3.org/2000/svg"
>
  <path
    d="M23.643 21.785A32.756 32.756 0 0 0 7.266 50.152v27.694a32.757 32.757 0 0 0 16.377 28.367l23.976 13.842a32.755 32.755 0 0 0 32.753.001l23.983-13.844a32.755 32.755 0 0 0 16.38-28.368v-27.69a32.755 32.755 0 0 0-16.38-28.368L80.372 7.942a32.755 32.755 0 0 0-32.753 0L23.643 21.786z"
    fill="#C9392B"
  ></path>
  <path
    d="M48.824 64.916c0-2.402.274-4.6.82-6.592.567-1.992 1.387-3.701 2.462-5.127 1.074-1.425 2.372-2.529 3.896-3.31 1.543-.782 3.3-1.172 5.273-1.172 1.66 0 3.116.303 4.366.908a10.243 10.243 0 0 1 3.369 2.52V36h8.174v45H69.83l-.41-3.31c-.996 1.23-2.168 2.187-3.516 2.87-1.347.684-2.91 1.026-4.687 1.026-1.934 0-3.672-.4-5.215-1.201a11.903 11.903 0 0 1-3.897-3.37c-1.054-1.425-1.865-3.115-2.431-5.068-.567-1.972-.85-4.111-.85-6.416v-.615zm8.145.615c0 1.328.107 2.569.322 3.721.234 1.133.606 2.129 1.113 2.988a5.809 5.809 0 0 0 1.963 1.992c.801.489 1.778.733 2.93.733 1.406 0 2.568-.303 3.486-.908.938-.606 1.68-1.436 2.227-2.49V58.733c-.547-1.074-1.28-1.904-2.198-2.49-.918-.605-2.07-.908-3.456-.908-1.153 0-2.14.254-2.96.762-.8.488-1.455 1.172-1.962 2.05-.508.86-.88 1.875-1.114 3.047a18.66 18.66 0 0 0-.351 3.721v.615zm25.166-20.273H61.86v-5.274h20.274v5.274zm-4.073 45.176H51.344v-6.358h26.718v6.358z"
    fill="#fff"
  ></path>
</svg>
