<svg
  width="19"
  height="19"
  viewBox="0 0 128 128"
  fill="none"
  xmlns="http://www.w3.org/2000/svg"
>
  <path
    d="M23.643 21.785A32.756 32.756 0 0 0 7.266 50.152v27.694a32.757 32.757 0 0 0 16.377 28.367l23.976 13.842a32.755 32.755 0 0 0 32.753.001l23.983-13.844a32.755 32.755 0 0 0 16.38-28.368v-27.69a32.755 32.755 0 0 0-16.38-28.368L80.372 7.942a32.755 32.755 0 0 0-32.753 0L23.643 21.786z"
    fill="#C3884C"
  ></path>
  <path
    d="M64.293 72.063h-6.24V88H49.82V45.344h14.297c2.364 0 4.502.283 6.416.85 1.914.546 3.545 1.357 4.893 2.431a10.539 10.539 0 0 1 3.135 4.014c.742 1.601 1.113 3.457 1.113 5.566 0 1.523-.186 2.9-.557 4.13a11.047 11.047 0 0 1-1.553 3.282 11.011 11.011 0 0 1-2.431 2.52 15.727 15.727 0 0 1-3.164 1.875l9.17 17.607V88H72.32l-8.027-15.938zm-6.24-6.68h6.094c2.324 0 4.11-.586 5.36-1.758 1.27-1.191 1.905-2.813 1.905-4.863 0-2.13-.615-3.78-1.846-4.952-1.23-1.19-3.047-1.787-5.449-1.787h-6.064v13.36z"
    fill="#fff"
  ></path>
</svg>
